<svg width="15" height="12" viewBox="0 0 15 12" fill="none" xmlns="http://www.w3.org/2000/svg">
<path fill-rule="evenodd" clip-rule="evenodd" d="M0.910004 5.99995C0.910004 5.77617 0.998898 5.56156 1.15713 5.40333C1.31537 5.24509 1.52998 5.1562 1.75375 5.1562H11.53L7.9075 1.5337C7.75846 1.37375 7.67732 1.1622 7.68118 0.943611C7.68504 0.725023 7.77359 0.516465 7.92818 0.361875C8.08277 0.207285 8.29133 0.118734 8.50992 0.114878C8.72851 0.111021 8.94006 0.192159 9.1 0.341199L14.1625 5.4037C14.3205 5.5619 14.4093 5.77635 14.4093 5.99995C14.4093 6.22354 14.3205 6.438 14.1625 6.5962L9.1 11.6587C8.94006 11.8077 8.72851 11.8889 8.50992 11.885C8.29133 11.8812 8.08277 11.7926 7.92818 11.638C7.77359 11.4834 7.68504 11.2749 7.68118 11.0563C7.67732 10.8377 7.75846 10.6261 7.9075 10.4662L11.53 6.8437H1.75375C1.52998 6.8437 1.31537 6.7548 1.15713 6.59657C0.998898 6.43834 0.910004 6.22373 0.910004 5.99995Z" fill="white"/>
</svg>
