<svg width="16" height="17" viewBox="0 0 16 17" fill="none" xmlns="http://www.w3.org/2000/svg">
<path fill-rule="evenodd" clip-rule="evenodd" d="M12.416 4.01614C12.5815 4.12648 12.6964 4.29803 12.7354 4.49307C12.7744 4.6881 12.7343 4.89064 12.624 5.05614L7.624 12.5561C7.56242 12.6484 7.48114 12.7258 7.38603 12.7829C7.29092 12.8399 7.18434 12.8752 7.07396 12.8861C6.96359 12.897 6.85217 12.8833 6.74773 12.8459C6.6433 12.8086 6.54844 12.7486 6.47 12.6701L3.47 9.67014C3.33752 9.52797 3.2654 9.33992 3.26882 9.14562C3.27225 8.95132 3.35096 8.76593 3.48838 8.62852C3.62579 8.49111 3.81118 8.41239 4.00548 8.40897C4.19978 8.40554 4.38782 8.47766 4.53 8.61014L6.883 10.9631L11.376 4.22314C11.4865 4.05782 11.6581 3.94314 11.8531 3.90432C12.0482 3.86551 12.2506 3.90573 12.416 4.01614Z" fill="#4ADE80"/>
</svg>
