<svg width="36" height="36" viewBox="0 0 36 36" fill="none" xmlns="http://www.w3.org/2000/svg">
<path d="M15.4875 6.4755C16.1265 3.8415 19.8735 3.8415 20.5125 6.4755C20.6084 6.8712 20.7964 7.23864 21.0611 7.548C21.3258 7.85736 21.6598 8.09976 22.036 8.25564C22.4121 8.41146 22.8197 8.47626 23.2257 8.44482C23.6316 8.41332 24.0244 8.28648 24.372 8.0745C26.6865 6.6645 29.337 9.3135 27.927 11.6295C27.7153 11.977 27.5887 12.3695 27.5573 12.7751C27.5259 13.1808 27.5906 13.5881 27.7463 13.964C27.9019 14.34 28.1441 14.6738 28.4531 14.9386C28.7621 15.2033 29.1292 15.3914 29.5245 15.4875C32.1585 16.1265 32.1585 19.8735 29.5245 20.5125C29.1288 20.6084 28.7614 20.7964 28.452 21.0611C28.1426 21.3258 27.9002 21.6598 27.7444 22.036C27.5885 22.4121 27.5237 22.8197 27.5552 23.2257C27.5867 23.6316 27.7135 24.0244 27.9255 24.372C29.3355 26.6865 26.6865 29.337 24.3705 27.927C24.023 27.7153 23.6305 27.5887 23.2249 27.5573C22.8192 27.5259 22.4119 27.5906 22.036 27.7463C21.66 27.9019 21.3262 28.1441 21.0614 28.4531C20.7967 28.7621 20.6086 29.1292 20.5125 29.5245C19.8735 32.1585 16.1265 32.1585 15.4875 29.5245C15.3916 29.1288 15.2036 28.7614 14.9389 28.452C14.6742 28.1426 14.3402 27.9002 13.964 27.7444C13.5879 27.5885 13.1803 27.5237 12.7743 27.5552C12.3684 27.5867 11.9756 27.7135 11.628 27.9255C9.3135 29.3355 6.663 26.6865 8.073 24.3705C8.28468 24.023 8.41134 23.6305 8.44272 23.2249C8.4741 22.8192 8.40936 22.4119 8.25372 22.036C8.09808 21.66 7.85592 21.3262 7.54692 21.0614C7.23792 20.7967 6.87084 20.6086 6.4755 20.5125C3.8415 19.8735 3.8415 16.1265 6.4755 15.4875C6.8712 15.3916 7.23864 15.2036 7.548 14.9389C7.85736 14.6742 8.09976 14.3402 8.25564 13.964C8.41146 13.5879 8.47626 13.1803 8.44482 12.7743C8.41332 12.3684 8.28648 11.9756 8.0745 11.628C6.6645 9.3135 9.3135 6.663 11.6295 8.073C13.1295 8.985 15.0735 8.178 15.4875 6.4755Z" stroke="#212529" stroke-width="0.6" stroke-linecap="round" stroke-linejoin="round"/>
<path d="M13.5 18C13.5 19.1935 13.9741 20.3381 14.818 21.182C15.6619 22.0259 16.8065 22.5 18 22.5C19.1935 22.5 20.3381 22.0259 21.182 21.182C22.0259 20.3381 22.5 19.1935 22.5 18C22.5 16.8065 22.0259 15.6619 21.182 14.818C20.3381 13.9741 19.1935 13.5 18 13.5C16.8065 13.5 15.6619 13.9741 14.818 14.818C13.9741 15.6619 13.5 16.8065 13.5 18Z" stroke="#212529" stroke-width="0.6" stroke-linecap="round" stroke-linejoin="round" stroke-dasharray="28.27 28.27"/>
</svg>
