<svg width="60" height="60" viewBox="0 0 60 60" fill="none" xmlns="http://www.w3.org/2000/svg">
<path d="M41 22V43" stroke="#212529" stroke-linecap="round" stroke-linejoin="round"/>
<path d="M37 43L27.5 18L18 43" stroke="#212529" stroke-linecap="round" stroke-linejoin="round" stroke-dasharray="53.49 53.49"/>
<path d="M34 37H20" stroke="#212529" stroke-linecap="round" stroke-linejoin="round"/>
<path d="M33.9344 10H13.5556C12.3474 10 11.1886 10.471 10.3343 11.3094C9.47996 12.1479 9 13.285 9 14.4707V46.5293C9 47.715 9.47996 48.8521 10.3343 49.6905C11.1886 50.529 12.3473 51 13.5556 51H45.4444C46.6527 51 47.8114 50.529 48.6657 49.6906C49.52 48.8521 50 47.715 50 46.5293V24.639" stroke="#212529" stroke-linecap="round" stroke-linejoin="round"/>
<path d="M51.4706 17.25C51.9386 17.25 52.3875 17.4344 52.7184 17.7626C53.0494 18.0908 53.2353 18.5359 53.2353 19C53.2353 18.5359 53.4212 18.0908 53.7522 17.7626C54.0831 17.4344 54.532 17.25 55 17.25C54.532 17.25 54.0831 17.0656 53.7522 16.7374C53.4212 16.4092 53.2353 15.9641 53.2353 15.5C53.2353 15.9641 53.0494 16.4092 52.7184 16.7374C52.3875 17.0656 51.9386 17.25 51.4706 17.25ZM51.4706 6.75C51.9386 6.75 52.3875 6.93437 52.7184 7.26256C53.0494 7.59075 53.2353 8.03587 53.2353 8.5C53.2353 8.03587 53.4212 7.59075 53.7522 7.26256C54.0831 6.93437 54.532 6.75 55 6.75C54.532 6.75 54.0831 6.56563 53.7522 6.23744C53.4212 5.90925 53.2353 5.46413 53.2353 5C53.2353 5.46413 53.0494 5.90925 52.7184 6.23744C52.3875 6.56563 51.9386 6.75 51.4706 6.75ZM45.2941 17.25C45.2941 15.8576 45.8519 14.5223 46.8447 13.5377C47.8376 12.5531 49.1841 12 50.5882 12C49.1841 12 47.8376 11.4469 46.8447 10.4623C45.8519 9.47774 45.2941 8.14239 45.2941 6.75C45.2941 8.14239 44.7363 9.47774 43.7435 10.4623C42.7507 11.4469 41.4041 12 40 12C41.4041 12 42.7507 12.5531 43.7435 13.5377C44.7363 14.5223 45.2941 15.8576 45.2941 17.25Z" stroke="#212529" stroke-linecap="round" stroke-linejoin="round"/>
</svg>
