<svg width="275" height="63" viewBox="0 0 275 63" fill="none" xmlns="http://www.w3.org/2000/svg">
<mask id="mask0_1_2069" style="mask-type:luminance" maskUnits="userSpaceOnUse" x="-2" y="0" width="279" height="64">
<path d="M276.5 0H-1.5V64H276.5V0Z" fill="white"/>
</mask>
<g mask="url(#mask0_1_2069)">
<path d="M1 47.34C7.825 47.34 13.675 39.08 20.5 39.08C27.325 39.08 33.175 34.95 40 34.95C46.825 34.95 52.675 39.08 59.5 39.08C66.325 39.08 72.175 34.95 79 34.95C85.825 34.95 91.675 23.15 98.5 23.15C105.325 23.15 111.175 33.77 118 33.77C124.825 33.77 130.675 28.46 137.5 28.46C144.325 28.46 150.175 39.08 157 39.08C163.825 39.08 169.675 43.21 176.5 43.21C183.325 43.21 189.175 28.46 196 28.46C202.825 28.46 208.675 29.64 215.5 29.64C222.325 29.64 228.175 29.64 235 29.64C241.825 29.64 247.675 28.46 254.5 28.46C261.325 28.46 267.175 33.77 274 33.77C274 33.77 274 33.77 274 61.5H1V47.34Z" fill="url(#paint0_linear_1_2069)"/>
</g>
<mask id="mask1_1_2069" style="mask-type:luminance" maskUnits="userSpaceOnUse" x="-2" y="0" width="279" height="64">
<path d="M276.5 0H-1.5V64H276.5V0Z" fill="white"/>
</mask>
<g mask="url(#mask1_1_2069)">
<path d="M1 47.34C7.825 47.34 13.675 39.08 20.5 39.08C27.325 39.08 33.175 34.95 40 34.95C46.825 34.95 52.675 39.08 59.5 39.08C66.325 39.08 72.175 34.95 79 34.95C85.825 34.95 91.675 23.15 98.5 23.15C105.325 23.15 111.175 33.77 118 33.77C124.825 33.77 130.675 28.46 137.5 28.46C144.325 28.46 150.175 39.08 157 39.08C163.825 39.08 169.675 43.21 176.5 43.21C183.325 43.21 189.175 28.46 196 28.46C202.825 28.46 208.675 29.64 215.5 29.64C222.325 29.64 228.175 29.64 235 29.64C241.825 29.64 247.675 28.46 254.5 28.46C261.325 28.46 267.175 33.77 274 33.77" stroke="#F8921A"/>
</g>
<defs>
<linearGradient id="paint0_linear_1_2069" x1="1" y1="23.15" x2="1" y2="61.5" gradientUnits="userSpaceOnUse">
<stop stop-color="#F8921A" stop-opacity="0.4225"/>
<stop offset="1" stop-color="#FCC98D" stop-opacity="0.25"/>
</linearGradient>
</defs>
</svg>
