<svg width="56" height="56" viewBox="0 0 56 56" fill="none" xmlns="http://www.w3.org/2000/svg">
<g clip-path="url(#clip0_1_2055)">
<path d="M56 28C56 12.536 43.464 0 28 0C12.536 0 0 12.536 0 28C0 43.464 12.536 56 28 56C43.464 56 56 43.464 56 28Z" fill="#F8921A"/>
<path fill-rule="evenodd" clip-rule="evenodd" d="M41.5969 23.482C42.3079 19.299 39.3079 16.961 35.1649 15.346L36.6709 9.692L33.3809 8.742L31.9149 14.247C31.0384 13.997 30.1593 13.756 29.2779 13.524L30.7539 7.984L27.4659 7.034L25.9589 12.686C25.2429 12.495 24.5389 12.306 23.8579 12.11L23.8619 12.093L19.3239 10.781L18.3459 14.456C18.3459 14.456 20.7889 15.109 20.7359 15.144C22.0679 15.53 22.2859 16.464 22.2259 17.199L20.5119 23.639C20.6029 23.666 20.7219 23.704 20.8529 23.763L20.5049 23.663L18.1009 32.685C17.9259 33.107 17.4929 33.735 16.5609 33.468C16.5929 33.518 14.1709 32.776 14.1709 32.776L12.4209 36.697L16.7029 37.933C17.4999 38.164 18.2799 38.405 19.0479 38.633L17.5269 44.35L20.8129 45.3L22.3199 39.643C23.2169 39.923 24.0879 40.183 24.9409 40.428L23.4399 46.058L26.7299 47.008L28.2509 41.301C33.8709 42.566 38.1309 42.227 40.0579 36.933C41.6109 32.671 40.1639 30.151 37.2339 28.456C39.4119 27.991 41.0819 26.545 41.5969 23.482ZM33.7369 34.378C32.6009 38.652 25.7359 36.146 23.5059 35.504L25.5239 27.929C27.7539 28.574 34.9249 29.922 33.7379 34.379L33.7369 34.378ZM26.4469 24.461L28.2779 17.591C30.1349 18.127 36.1339 19.194 35.0549 23.249C34.0179 27.136 28.3039 24.998 26.4469 24.461Z" fill="white"/>
</g>
<defs>
<clipPath id="clip0_1_2055">
<rect width="56" height="56" fill="white"/>
</clipPath>
</defs>
</svg>
