<svg width="60" height="60" viewBox="0 0 60 60" fill="none" xmlns="http://www.w3.org/2000/svg">
<path d="M45 17.5L42.5 20" stroke="#212529" stroke-linecap="round" stroke-linejoin="round" stroke-dasharray="3.54 3.54"/>
<path d="M35 27.5H37.5C38.8261 27.5 40.0979 28.0268 41.0355 28.9645C41.9732 29.9021 42.5 31.1739 42.5 32.5V40C42.5 40.9946 42.8951 41.9484 43.5984 42.6516C44.3016 43.3549 45.2554 43.75 46.25 43.75C47.2446 43.75 48.1984 43.3549 48.9016 42.6516C49.6049 41.9484 50 40.9946 50 40V22.5L42.5 15" stroke="#212529" stroke-linecap="round" stroke-linejoin="round"/>
<path d="M10 50V15C10 13.6739 10.5268 12.4021 11.4645 11.4645C12.4021 10.5268 13.6739 10 15 10H30C31.3261 10 32.5979 10.5268 33.5355 11.4645C34.4732 12.4021 35 13.6739 35 15V50" stroke="#212529" stroke-linecap="round" stroke-linejoin="round"/>
<path d="M22.5 28.75L18.75 35H26.25L22.5 41.25" stroke="#212529" stroke-linecap="round" stroke-linejoin="round"/>
<path d="M7.5 50H37.5" stroke="#212529" stroke-linecap="round" stroke-linejoin="round"/>
<path d="M10 20H35" stroke="#212529" stroke-linecap="round" stroke-linejoin="round"/>
</svg>
