<svg width="36" height="36" viewBox="0 0 36 36" fill="none" xmlns="http://www.w3.org/2000/svg">
<path d="M31.5 21L27 16.5H16.5C16.1022 16.5 15.7207 16.342 15.4393 16.0607C15.158 15.7793 15 15.3978 15 15V6C15 5.60218 15.158 5.22064 15.4393 4.93934C15.7207 4.65803 16.1022 4.5 16.5 4.5H30C30.3978 4.5 30.7793 4.65803 31.0607 4.93934C31.342 5.22064 31.5 5.60218 31.5 6V21Z" stroke="#212529" stroke-width="0.6" stroke-linecap="round" stroke-linejoin="round"/>
<path d="M21 22.5V25.5C21 25.8978 20.842 26.2793 20.5607 26.5607C20.2793 26.842 19.8978 27 19.5 27H9L4.5 31.5V16.5C4.5 16.1022 4.65803 15.7207 4.93934 15.4393C5.22064 15.158 5.60218 15 6 15H9" stroke="#212529" stroke-width="0.6" stroke-linecap="round" stroke-linejoin="round" stroke-dasharray="42.58 42.58"/>
</svg>
