<svg width="36" height="36" viewBox="0 0 36 36" fill="none" xmlns="http://www.w3.org/2000/svg">
<path d="M13.5 6H18L21 9H28.5C29.2957 9 30.0587 9.31608 30.6213 9.8787C31.1839 10.4413 31.5 11.2043 31.5 12V22.5C31.5 23.2957 31.1839 24.0587 30.6213 24.6213C30.0587 25.1839 29.2957 25.5 28.5 25.5H13.5C12.7043 25.5 11.9413 25.1839 11.3787 24.6213C10.8161 24.0587 10.5 23.2957 10.5 22.5V9C10.5 8.20434 10.8161 7.44126 11.3787 6.8787C11.9413 6.31608 12.7043 6 13.5 6Z" stroke="#212529" stroke-width="0.6" stroke-linecap="round" stroke-linejoin="round" stroke-dasharray="74.09 74.09"/>
<path d="M25.5 25.5V28.5C25.5 29.2957 25.1839 30.0587 24.6213 30.6213C24.0587 31.1839 23.2957 31.5 22.5 31.5H7.5C6.70434 31.5 5.94129 31.1839 5.37868 30.6213C4.81607 30.0587 4.5 29.2957 4.5 28.5V15C4.5 14.2043 4.81607 13.4413 5.37868 12.8787C5.94129 12.3161 6.70434 12 7.5 12H10.5" stroke="#212529" stroke-width="0.6" stroke-linecap="round" stroke-linejoin="round" stroke-dasharray="48.64 48.64"/>
</svg>
