<svg width="60" height="60" viewBox="0 0 60 60" fill="none" xmlns="http://www.w3.org/2000/svg">
<path d="M21.3999 9.2251C18.6701 10.3551 16.1895 12.0116 14.0999 14.1001" stroke="#212529" stroke-width="1.5" stroke-linecap="round" stroke-linejoin="round"/>
<path d="M9.225 21.4001C8.09139 24.1259 7.50526 27.0481 7.5 30.0002" stroke="#212529" stroke-width="1.5" stroke-linecap="round" stroke-linejoin="round"/>
<path d="M9.22485 38.5999C10.3548 41.3296 12.0113 43.8101 14.0999 45.8998" stroke="#212529" stroke-width="1.5" stroke-linecap="round" stroke-linejoin="round"/>
<path d="M21.3999 50.7749C24.1257 51.9085 27.0479 52.4947 29.9999 52.4999" stroke="#212529" stroke-width="1.5" stroke-linecap="round" stroke-linejoin="round"/>
<path d="M38.6001 50.7749C41.3299 49.6449 43.8105 47.9884 45.9001 45.8999" stroke="#212529" stroke-width="1.5" stroke-linecap="round" stroke-linejoin="round"/>
<path d="M50.7751 38.5999C51.9087 35.8743 52.4949 32.952 52.5001 30" stroke="#212529" stroke-width="1.5" stroke-linecap="round" stroke-linejoin="round"/>
<path d="M50.7751 21.4001C49.6452 18.6703 47.9886 16.1897 45.9001 14.1001" stroke="#212529" stroke-width="1.5" stroke-linecap="round" stroke-linejoin="round"/>
<path d="M38.5999 9.225C35.8743 8.09139 32.952 7.50526 30 7.5" stroke="#212529" stroke-width="1.5" stroke-linecap="round" stroke-linejoin="round"/>
<path d="M22.5 30H37.5" stroke="#212529" stroke-width="1.5" stroke-linecap="round" stroke-linejoin="round"/>
<path d="M30 22.5V37.5" stroke="#212529" stroke-width="1.5" stroke-linecap="round" stroke-linejoin="round"/>
</svg>
