<svg width="60" height="60" viewBox="0 0 60 60" fill="none" xmlns="http://www.w3.org/2000/svg">
<path d="M42.5 52.5V37.5M47.5 37.5V33.75M47.5 56.25V52.5M42.5 45H50M47.5 45H48.75M48.75 45C49.7446 45 50.6984 45.3951 51.4016 46.0984C52.1049 46.8016 52.5 47.7554 52.5 48.75C52.5 49.7446 52.1049 50.6984 51.4016 51.4016C50.6984 52.1049 49.7446 52.5 48.75 52.5H40M48.75 45C49.7446 45 50.6984 44.6049 51.4016 43.9016C52.1049 43.1984 52.5 42.2446 52.5 41.25C52.5 40.2554 52.1049 39.3016 51.4016 38.5983C50.6984 37.8951 49.7446 37.5 48.75 37.5H40" stroke="#212529" stroke-linecap="round" stroke-linejoin="round"/>
<path d="M20 17.5C20 20.1522 21.0536 22.6957 22.9289 24.5711C24.8043 26.4464 27.3478 27.5 30 27.5C32.6522 27.5 35.1957 26.4464 37.0711 24.5711C38.9464 22.6957 40 20.1522 40 17.5C40 14.8478 38.9464 12.3043 37.0711 10.4289C35.1957 8.55357 32.6522 7.5 30 7.5C27.3478 7.5 24.8043 8.55357 22.9289 10.4289C21.0536 12.3043 20 14.8478 20 17.5Z" stroke="#212529" stroke-linecap="round" stroke-linejoin="round"/>
<path d="M15 52.5V47.5C15 44.8478 16.0536 42.3043 17.9289 40.4289C19.8043 38.5536 22.3478 37.5 25 37.5H32.5" stroke="#212529" stroke-linecap="round" stroke-linejoin="round" stroke-dasharray="28.21 28.21"/>
</svg>
