<svg width="28" height="28" viewBox="0 0 28 28" fill="none" xmlns="http://www.w3.org/2000/svg">
<path d="M9.33331 14C9.33331 15.2377 9.82498 16.4247 10.7001 17.2998C11.5753 18.175 12.7623 18.6667 14 18.6667C15.2377 18.6667 16.4246 18.175 17.2998 17.2998C18.175 16.4247 18.6666 15.2377 18.6666 14C18.6666 12.7623 18.175 11.5753 17.2998 10.7002C16.4246 9.82499 15.2377 9.33333 14 9.33333C12.7623 9.33333 11.5753 9.82499 10.7001 10.7002C9.82498 11.5753 9.33331 12.7623 9.33331 14Z" stroke="#212529" stroke-width="1.16667" stroke-linecap="round" stroke-linejoin="round"/>
<path d="M3.5 14H4.66667M14 3.5V4.66667M23.3333 14H24.5M14 23.3333V24.5M6.53333 6.53333L7.35 7.35M21.4667 6.53333L20.65 7.35M20.65 20.65L21.4667 21.4667M7.35 20.65L6.53333 21.4667" stroke="#212529" stroke-width="1.16667" stroke-linecap="round" stroke-linejoin="round"/>
</svg>
