<svg width="60" height="60" viewBox="0 0 60 60" fill="none" xmlns="http://www.w3.org/2000/svg">
<path d="M25 32.5C25 33.8261 25.5268 35.0979 26.4645 36.0355C27.4021 36.9732 28.6739 37.5 30 37.5C31.3261 37.5 32.5979 36.9732 33.5355 36.0355C34.4732 35.0979 35 33.8261 35 32.5C35 31.1739 34.4732 29.9021 33.5355 28.9645C32.5979 28.0268 31.3261 27.5 30 27.5C28.6739 27.5 27.4021 28.0268 26.4645 28.9645C25.5268 29.9021 25 31.1739 25 32.5Z" stroke="#212529" stroke-linecap="round" stroke-linejoin="round"/>
<path d="M33.625 28.875L38.75 23.75" stroke="#212529" stroke-linecap="round" stroke-linejoin="round" stroke-dasharray="7.25 7.25"/>
<path d="M16 50C12.3454 47.0952 9.68478 43.1256 8.38695 38.6412C7.08911 34.1568 7.2183 29.3797 8.75661 24.972C10.2949 20.5643 13.1662 16.7443 16.9725 14.0413C20.7788 11.3382 25.3316 9.88611 30 9.88611C34.6684 9.88611 39.2212 11.3382 43.0275 14.0413C46.8338 16.7443 49.7051 20.5643 51.2434 24.972C52.7817 29.3797 52.9109 34.1568 51.6131 38.6412C50.3152 43.1256 47.6546 47.0952 44 50H16Z" stroke="#212529" stroke-linecap="round" stroke-linejoin="round"/>
</svg>
