<svg width="36" height="36" viewBox="0 0 36 36" fill="none" xmlns="http://www.w3.org/2000/svg">
<path d="M4.5 10.5C4.5 9.70434 4.81607 8.94126 5.37868 8.3787C5.94129 7.81608 6.70434 7.5 7.5 7.5H28.5C29.2957 7.5 30.0587 7.81608 30.6213 8.3787C31.1839 8.94126 31.5 9.70434 31.5 10.5V25.5C31.5 26.2957 31.1839 27.0587 30.6213 27.6213C30.0587 28.1839 29.2957 28.5 28.5 28.5H7.5C6.70434 28.5 5.94129 28.1839 5.37868 27.6213C4.81607 27.0587 4.5 26.2957 4.5 25.5V10.5Z" stroke="#212529" stroke-width="0.6" stroke-linecap="round" stroke-linejoin="round" stroke-dasharray="90.85 90.85"/>
<path d="M4.5 10.5L18 19.5L31.5 10.5" stroke="#212529" stroke-width="0.6" stroke-linecap="round" stroke-linejoin="round"/>
</svg>
