<svg width="60" height="60" viewBox="0 0 60 60" fill="none" xmlns="http://www.w3.org/2000/svg">
<path d="M10 52.5V15C10 12.5 12.5 10 15 10H27.5C30 10 32.5 12.5 32.5 15V52.5" stroke="#212529" stroke-linecap="round" stroke-linejoin="round"/>
<path d="M40 20H45C47.5 20 50 22.5 50 25V52.5" stroke="#212529" stroke-linecap="round" stroke-linejoin="round"/>
<path d="M7.5 52.5H52.5" stroke="#212529" stroke-linecap="round" stroke-linejoin="round"/>
<path d="M16 19H18" stroke="#212529" stroke-linecap="round" stroke-linejoin="round"/>
<path d="M16 27H18" stroke="#212529" stroke-linecap="round" stroke-linejoin="round"/>
<path d="M16 35H18" stroke="#212529" stroke-linecap="round" stroke-linejoin="round"/>
<path d="M24 19H26" stroke="#212529" stroke-linecap="round" stroke-linejoin="round"/>
<path d="M24 27H26" stroke="#212529" stroke-linecap="round" stroke-linejoin="round"/>
<path d="M24 35H26" stroke="#212529" stroke-linecap="round" stroke-linejoin="round"/>
<path d="M16 43H18" stroke="#212529" stroke-linecap="round" stroke-linejoin="round"/>
<path d="M24 43H26" stroke="#212529" stroke-linecap="round" stroke-linejoin="round"/>
<path d="M40 27H42.5" stroke="#212529" stroke-linecap="round" stroke-linejoin="round"/>
<path d="M40 37H42.5" stroke="#212529" stroke-linecap="round" stroke-linejoin="round"/>
<path d="M40 47H42.5" stroke="#212529" stroke-linecap="round" stroke-linejoin="round"/>
</svg>
