<svg width="46" height="46" viewBox="0 0 46 46" fill="none" xmlns="http://www.w3.org/2000/svg">
<g clip-path="url(#clip0_1_2951)">
<path d="M23 46C35.7025 46 46 35.7025 46 23C46 10.2975 35.7025 0 23 0C10.2975 0 0 10.2975 0 23C0 35.7025 10.2975 46 23 46Z" fill="#44B3E2"/>
<path fill-rule="evenodd" clip-rule="evenodd" d="M14.2517 28.0493C13.3046 27.3569 12.7977 26.5305 13.3925 25.3657C13.5945 24.9698 13.2134 24.978 13.0245 24.909C11.191 24.242 9.32393 24.0794 7.40918 24.5558C7.23175 24.6002 7.00421 24.8852 6.82596 24.587C6.7085 24.3923 6.88511 24.2272 7.00832 24.0786C8.86803 21.8385 11.0013 19.9944 14.0052 19.3792C14.6671 19.2433 15.3464 19.213 16.0177 19.2896C16.6946 19.3668 18.0007 19.0917 18.3079 18.5544C25.4732 23.0986 29.0349 25.3887 28.993 25.4257C27.8315 26.4393 28.5059 27.4316 29.1121 29.0622C30.1504 31.855 29.2091 34.5707 27.765 37.0875C27.5243 37.5048 27.3296 38.2597 26.905 38.1849C26.445 38.1044 26.6462 37.3479 26.5476 36.8887C26.1994 35.2705 25.4453 33.8511 24.3503 32.6001C24.2148 32.4456 24.0612 32.191 23.8172 32.4703C22.866 33.5628 21.8458 33.2137 20.8108 32.6206C20.4157 32.5672 20.1315 32.3043 19.807 32.1162C18.3407 31.0525 16.8112 30.075 15.3466 29.0088C14.9934 28.6761 14.439 28.5627 14.2517 28.0493Z" fill="#5A6A73"/>
<path fill-rule="evenodd" clip-rule="evenodd" d="M19.9615 32.0193C20.2745 32.1795 20.5784 32.352 20.8101 32.6206C19.7291 34.2881 18.4164 35.7354 16.6126 36.6751C15.3607 37.3274 13.9988 37.7791 12.7436 36.8148C11.5156 35.8718 11.5624 34.4803 11.8056 33.1101C12.144 31.2044 13.0287 29.5476 14.2518 28.0493L15.3977 28.856C15.3919 29.3858 14.9968 29.7497 14.7882 30.1908C14.3832 31.0484 14.062 31.9207 14.113 32.881C14.1795 34.1361 15.0313 34.7587 16.2766 34.4951C17.1613 34.307 17.8537 33.819 18.5002 33.2268C18.9651 32.8013 19.3101 32.2312 19.9615 32.0193Z" fill="#EE8100"/>
<path fill-rule="evenodd" clip-rule="evenodd" d="M30.7272 23.069C28.1766 25.8495 24.7603 29.7275 22.2829 32.5729C21.6422 33.3097 21.3415 33.3681 20.4987 32.7931C18.2878 31.2877 16.0874 29.767 13.8977 28.2308C13.0237 27.6172 12.9753 27.3273 13.4829 26.4442C15.4461 23.0246 18.4854 18.6653 20.4223 15.2334C22.1777 12.1226 24.858 10.373 28.207 9.4037C29.5231 9.01489 30.8782 8.77355 32.2476 8.68413C32.9434 8.64224 33.2629 8.86485 33.4305 9.50802C33.8535 11.1386 34.04 12.7962 34.1205 14.4621C34.1829 17.7847 32.9943 20.5965 30.7272 23.069Z" fill="white"/>
<path fill-rule="evenodd" clip-rule="evenodd" d="M19.9622 32.4456C19.0275 33.4592 18.1469 34.5517 16.849 35.1432C15.9307 35.5621 14.9466 35.949 13.9707 35.2458C12.9423 34.5041 12.944 33.4256 13.1378 32.3684C13.3737 31.0751 13.9405 29.865 14.7831 28.856L19.9622 32.4456Z" fill="#EEBB00"/>
<path fill-rule="evenodd" clip-rule="evenodd" d="M26.8631 21.3711C24.6592 21.3645 22.8003 19.4588 22.8274 17.2344C22.8562 14.9631 24.72 13.1453 27.0077 13.1568C29.2091 13.1683 31.0705 15.0806 31.0409 17.3001C31.0113 19.582 29.168 21.3777 26.8631 21.3711Z" fill="#5A6A73"/>
</g>
<defs>
<clipPath id="clip0_1_2951">
<rect width="46" height="46" fill="white"/>
</clipPath>
</defs>
</svg>
