<svg width="46" height="46" viewBox="0 0 46 46" fill="none" xmlns="http://www.w3.org/2000/svg">
<g clip-path="url(#clip0_1_2966)">
<path d="M23 46C35.7025 46 46 35.7025 46 23C46 10.2975 35.7025 0 23 0C10.2975 0 0 10.2975 0 23C0 35.7025 10.2975 46 23 46Z" fill="#2E9AD0"/>
<path d="M38.576 33.2095C38.1698 33.207 37.7765 33.3524 37.4696 33.6186L34.4508 31.0089L36.7713 23.8313H36.8535C37.1574 23.8313 37.431 23.7196 37.6716 23.4945C37.9033 23.2719 38.0199 22.9869 38.0199 22.6402C38.0199 22.3133 37.9033 22.0332 37.6716 21.7991C37.431 21.5773 37.1582 21.4623 36.8535 21.4623H36.7713L34.7391 15.1866C34.9043 15.0865 35.0409 14.9456 35.1359 14.7775C35.2287 14.6181 35.2837 14.4251 35.292 14.2C35.292 13.8731 35.1753 13.5922 34.9437 13.3589C34.8344 13.2466 34.7034 13.1577 34.5586 13.0977C34.4139 13.0377 34.2584 13.0078 34.1017 13.0098C33.963 13.0164 33.8257 13.0413 33.6935 13.0837C33.5623 13.129 33.4431 13.2031 33.3443 13.3006L27.9821 9.41686C28.0067 9.35115 28.0314 9.28544 28.056 9.21151C28.0609 9.14579 28.0642 9.06201 28.0642 8.97165C28.0642 8.6439 27.9467 8.36379 27.7151 8.12969C27.4744 7.89804 27.2009 7.78058 26.897 7.78058C26.6295 7.79105 26.3708 7.87863 26.1519 8.03276C25.9354 8.18707 25.7884 8.42053 25.7429 8.68251H19.2371C19.1717 8.43253 19.0288 8.20968 18.8289 8.0459C18.6268 7.87594 18.3717 7.78207 18.1077 7.78058C17.7709 7.78058 17.4883 7.89804 17.2657 8.12969C17.1531 8.23872 17.0641 8.36971 17.0042 8.51453C16.9443 8.65936 16.9148 8.81494 16.9174 8.97165C16.9174 9.06201 16.9223 9.14251 16.9421 9.21233C16.9601 9.28626 16.9749 9.35279 16.9996 9.41686L11.6373 13.3006C11.5354 13.2135 11.4221 13.1408 11.3005 13.0845C11.1625 13.0435 11.0212 13.0188 10.8799 13.0106C10.5431 13.0106 10.2606 13.1273 10.038 13.3589C9.92544 13.4678 9.83647 13.5987 9.77656 13.7433C9.71665 13.888 9.68708 14.0435 9.68967 14.2C9.68967 14.4251 9.7406 14.619 9.84574 14.7775C9.93856 14.9549 10.0741 15.0929 10.2425 15.1866H10.2655L8.23328 21.427H8.14867C7.81189 21.427 7.53014 21.5436 7.30753 21.7753C7.19468 21.8841 7.10545 22.0151 7.04539 22.1599C6.98533 22.3048 6.95572 22.4604 6.95842 22.6172C6.95842 22.954 7.07342 23.2366 7.30753 23.4592C7.52931 23.6933 7.81271 23.8075 8.14867 23.8075H8.20946L10.2655 30.1078C10.09 30.2028 9.94419 30.3443 9.8441 30.5169C9.73896 30.6853 9.68803 30.8808 9.68803 31.0944C9.68803 31.4312 9.80303 31.7137 10.0371 31.9355C10.2589 32.1704 10.5415 32.2846 10.8783 32.2846C11.0196 32.2846 11.1608 32.26 11.2997 32.2107C11.4106 32.1696 11.5215 32.108 11.6365 32.0185L16.9987 35.8775C16.9741 35.9523 16.9577 36.0279 16.9412 36.0952C16.9232 36.1692 16.9166 36.2513 16.9166 36.3228C16.9166 36.6571 17.0308 36.9388 17.2649 37.1647C17.4867 37.3964 17.7701 37.5138 18.106 37.5138C18.3681 37.5138 18.612 37.4259 18.8281 37.2608C19.0416 37.108 19.1796 36.8912 19.2363 36.6119H25.742C25.7831 36.8912 25.9244 37.108 26.1503 37.2608C26.3581 37.4259 26.607 37.5138 26.8961 37.5138C27.1992 37.5138 27.4728 37.3964 27.7135 37.1647C27.9451 36.9396 28.0626 36.6571 28.0626 36.3228C28.0626 36.2488 28.0576 36.1733 28.0544 36.0952C28.0297 36.0295 28.0051 35.9556 27.9804 35.8775L34.1001 31.4648L37.095 34.0507C37.0128 34.1706 36.9537 34.3094 36.9143 34.4589C36.865 34.6273 36.8486 34.7867 36.8568 34.928C36.8486 35.4036 37.0153 35.8003 37.362 36.1305C37.6889 36.4649 38.0955 36.6365 38.576 36.6365C38.8003 36.6378 39.0224 36.5937 39.2291 36.5067C39.4358 36.4197 39.6227 36.2918 39.7786 36.1305C40.1055 35.8003 40.2747 35.4036 40.2838 34.928C40.2807 34.4694 40.0996 34.0299 39.7786 33.7024C39.4418 33.3747 39.0393 33.2095 38.576 33.2095ZM34.3071 15.7139L36.2193 21.6529C36.0805 21.7358 35.9729 21.8369 35.8941 21.9543C35.8037 22.0693 35.7413 22.2008 35.7019 22.3511H34.7161C34.6723 22.1534 34.5767 21.9708 34.4393 21.8221C34.2907 21.6827 34.12 21.5689 33.9341 21.4853L34.3071 15.7139ZM33.7542 15.3287L33.3452 21.4606H33.3123C33.2942 21.4654 33.2774 21.4741 33.263 21.4861L30.8217 16.845C30.9392 16.758 31.0411 16.6282 31.1232 16.4598C31.1889 16.3095 31.2218 16.1444 31.2308 15.9669C31.2308 15.962 31.2259 15.9341 31.2234 15.8832C31.2131 15.8649 31.2071 15.8446 31.2056 15.8237C31.2042 15.8028 31.2075 15.7819 31.2152 15.7624L33.1875 14.9204C33.2532 15.0108 33.3378 15.0929 33.4528 15.1619C33.5267 15.2515 33.6269 15.2999 33.7403 15.3057L33.7542 15.3287ZM27.1048 21.4853C27.0875 21.4927 27.0637 21.4902 27.021 21.4771C26.9809 21.4727 26.9406 21.4702 26.9002 21.4697C26.8427 21.4697 26.7852 21.4746 26.7319 21.4779C26.6736 21.4978 26.6127 21.5089 26.5511 21.5108L23.3049 15.8593C23.3688 15.8059 23.4218 15.7407 23.4609 15.6671C23.5028 15.6014 23.5455 15.5234 23.594 15.4503L28.8479 16.1115C28.8528 16.2799 28.9053 16.422 28.9924 16.5329C29.0581 16.6717 29.1608 16.7826 29.2807 16.8697L27.1048 21.4853ZM29.8106 17.1317C29.8352 17.1317 29.8763 17.1375 29.9305 17.1399C29.956 17.158 29.988 17.1646 30.0389 17.1481C30.08 17.1547 30.1227 17.1523 30.1704 17.1399C30.2114 17.135 30.2607 17.1153 30.3272 17.0906L32.7685 21.744C32.6626 21.8344 32.5854 21.9264 32.5402 22.0209C32.4697 22.1153 32.4278 22.2279 32.4194 22.3453H28.0429L27.8983 22.0209C27.8266 21.9215 27.7461 21.8288 27.6576 21.744L29.8097 17.1325L29.8106 17.1317ZM26.0591 21.7974C25.977 21.8796 25.9178 21.9625 25.8784 22.0496C25.8291 22.14 25.7847 22.2394 25.747 22.3511H19.2412C19.2249 22.2427 19.1838 22.1396 19.1213 22.0496L18.9291 21.7974L22.1992 16.146C22.2403 16.146 22.283 16.1518 22.3306 16.1542C22.3725 16.1715 22.4276 16.1789 22.4999 16.1616C22.5519 16.1691 22.6049 16.1663 22.6559 16.1534C22.697 16.1493 22.7463 16.1468 22.8128 16.1468L26.0591 21.7983V21.7974ZM18.4362 21.5099C18.3787 21.5073 18.322 21.4959 18.2679 21.4763C18.2157 21.4709 18.1634 21.4681 18.111 21.468C18.0617 21.468 18.0206 21.4738 17.9902 21.4763C17.9409 21.4935 17.9031 21.5009 17.8826 21.4845L15.7058 16.8664C15.8175 16.7793 15.9128 16.6676 15.995 16.5296C16.0607 16.4187 16.1058 16.2783 16.1387 16.109L21.3934 15.4108C21.4345 15.5258 21.4772 15.6104 21.5248 15.6638C21.5577 15.746 21.6094 15.8117 21.6817 15.856L18.4354 21.5091L18.4362 21.5099ZM17.3536 21.7498C17.2562 21.8155 17.1741 21.9016 17.1129 22.002C17.0359 22.103 16.9902 22.2244 16.9815 22.3511H12.6279C12.5803 22.2484 12.5294 22.1441 12.4842 22.0389C12.4146 21.9414 12.3338 21.8523 12.2435 21.7736L14.684 17.1325C14.725 17.1325 14.7686 17.1375 14.8154 17.1408C14.8573 17.1572 14.9057 17.1654 14.9731 17.1481C15.006 17.1555 15.047 17.1531 15.093 17.1399C15.1259 17.135 15.167 17.1325 15.2138 17.1325L17.3536 21.7498ZM12.6279 22.9409H16.9445C16.9718 23.0688 17.0296 23.1883 17.1129 23.2892C17.1704 23.3943 17.2485 23.4781 17.3536 23.5413L15.1768 28.1586H14.817C14.7669 28.1668 14.7234 28.1832 14.684 28.1914L12.2435 23.5142C12.3363 23.4485 12.4176 23.3549 12.4842 23.2497C12.5294 23.1561 12.5803 23.0509 12.6287 22.9376V22.94L12.6279 22.9409ZM17.8826 23.8058C17.9072 23.8058 17.9401 23.8108 17.991 23.814C18.0239 23.8387 18.065 23.8469 18.111 23.8214C18.1685 23.8387 18.2227 23.8288 18.2794 23.8132C18.3324 23.8081 18.3848 23.7971 18.4354 23.7804L21.6825 29.4072C21.6164 29.4637 21.5632 29.5337 21.5265 29.6125C21.4772 29.7029 21.4328 29.7784 21.3934 29.8409L16.1395 29.1796C16.1049 29.0351 16.0565 28.8943 15.995 28.759C15.9105 28.6373 15.8139 28.5245 15.7066 28.4223L17.8826 23.8058ZM18.9283 23.4937C18.994 23.428 19.0548 23.3376 19.1205 23.2415C19.1855 23.1528 19.2271 23.0491 19.2412 22.94H25.747C25.7511 23.0542 25.7962 23.1536 25.8669 23.2415C25.9244 23.3376 25.9868 23.4247 26.0591 23.4937L22.8128 29.1205C22.7646 29.1282 22.7154 29.1257 22.6682 29.1131C22.6137 29.0965 22.5569 29.0882 22.4999 29.0884C22.4426 29.0854 22.3854 29.0937 22.3315 29.1131C22.2817 29.1328 22.2289 29.1439 22.1754 29.1459V29.1213L18.9283 23.4937ZM26.5511 23.782C26.6177 23.8001 26.6727 23.8149 26.7204 23.8149C26.7614 23.8403 26.8107 23.8477 26.8764 23.8231C26.9175 23.8403 26.9734 23.8305 27.021 23.8149C27.0539 23.8099 27.0949 23.8075 27.1417 23.8075H27.1089L29.2857 28.4247C29.1707 28.5307 29.077 28.644 29.008 28.7615C28.9341 28.8995 28.893 29.0408 28.8873 29.1813L23.5973 29.8425C23.5452 29.775 23.5082 29.6972 23.4889 29.6141C23.4396 29.5484 23.3903 29.4762 23.3443 29.4096L26.552 23.7828L26.5511 23.782ZM27.6338 23.5413C27.7217 23.4756 27.8022 23.3935 27.8745 23.2892C27.9465 23.1812 28.0032 23.0637 28.0429 22.94H32.4194C32.4605 23.0542 32.5073 23.1594 32.564 23.2522C32.6096 23.361 32.696 23.4477 32.8047 23.4937L30.3042 28.1947C30.255 28.1775 30.2106 28.1701 30.172 28.1619H29.8114L27.6338 23.5413ZM27.6584 9.87029L32.9977 13.7655C32.9731 13.8312 32.9566 13.901 32.9484 13.9709C32.9238 14.0604 32.9156 14.136 32.9156 14.1992C32.9074 14.2485 32.9106 14.2814 32.923 14.2953C32.9402 14.3282 32.9476 14.361 32.9476 14.4038V14.3709L30.9639 15.2482C30.8472 15.1191 30.7141 15.0058 30.5679 14.9114C30.4046 14.8252 30.2228 14.7801 30.0381 14.78H29.9305C29.873 14.7882 29.8319 14.8046 29.8097 14.8128H29.8344L27.6346 9.90726V9.89904C27.6346 9.88261 27.6395 9.8744 27.6592 9.8744L27.6584 9.87029ZM26.4452 10.0748C26.5109 10.1077 26.5799 10.1323 26.662 10.1323C26.7277 10.1504 26.7967 10.157 26.8789 10.157C26.9117 10.175 26.9528 10.1652 26.9988 10.1504C27.0235 10.1447 27.0563 10.1422 27.1072 10.1422L29.3194 15.0486C29.2232 15.0963 29.1437 15.1719 29.091 15.2654C29.0253 15.3558 28.9735 15.4486 28.9349 15.5414L23.6556 14.8432C23.6468 14.7361 23.6219 14.6308 23.5817 14.5311C23.5379 14.4383 23.4856 14.3498 23.4256 14.2666L26.4452 10.0748ZM19.2421 9.26983H25.7478C25.7527 9.35197 25.7806 9.42836 25.8316 9.49736C25.8726 9.58772 25.9186 9.66247 25.9761 9.72654L22.8974 13.8748C22.8365 13.8683 22.776 13.8573 22.7167 13.8419C22.6346 13.8362 22.5639 13.8337 22.4999 13.8337C22.4103 13.8337 22.329 13.8386 22.2592 13.8419C22.1852 13.8583 22.1187 13.883 22.0546 13.9158V13.883L19.0129 9.73476C19.054 9.66822 19.109 9.59922 19.1575 9.51708C19.203 9.44413 19.2317 9.36188 19.2412 9.2764L19.2421 9.26983ZM18.1126 10.1586C18.1783 10.1586 18.2506 10.1537 18.341 10.134C18.4121 10.1277 18.4815 10.1082 18.5455 10.0765L21.5996 14.2608C21.5191 14.3333 21.4571 14.424 21.4189 14.5253C21.3696 14.6305 21.3449 14.7356 21.3342 14.8375L16.0557 15.5357C16.007 15.4438 15.9591 15.3515 15.912 15.2589C15.8482 15.1823 15.7796 15.1099 15.7066 15.042L17.9081 10.1364C17.9122 10.1364 17.9409 10.1414 17.9918 10.1438C18.0247 10.1685 18.0658 10.1767 18.1118 10.152L18.1126 10.1586ZM17.3544 9.87111V9.89576C17.3544 9.91301 17.3626 9.9204 17.3873 9.90315L15.1752 14.8087C15.1259 14.7915 15.093 14.7841 15.0791 14.7759H14.9706C14.7694 14.7759 14.5928 14.8169 14.4416 14.9073C14.2732 15.0042 14.1377 15.1184 14.0449 15.2441L12.0365 14.3668C12.0521 14.361 12.0644 14.3339 12.0735 14.2822V14.1746C12.0628 14.1089 12.0505 14.0267 12.0365 13.9454C12.0138 13.8872 11.9978 13.8265 11.9889 13.7647L17.3544 9.87111ZM11.8114 14.9204L13.8198 15.7624C13.7995 15.7992 13.7882 15.8403 13.787 15.8823V16.0031C13.7787 16.1657 13.8116 16.3185 13.8946 16.4598C13.9499 16.6177 14.0555 16.753 14.1952 16.845L11.7547 21.4861H11.6931L11.2602 15.3057C11.372 15.2728 11.4796 15.2186 11.5847 15.1373C11.6725 15.0787 11.7497 15.0056 11.8131 14.9213L11.8114 14.9204ZM10.7058 29.5772L8.76967 23.6383C8.89742 23.5612 9.00787 23.4585 9.09414 23.3368C9.18201 23.2175 9.24717 23.083 9.28635 22.94H10.3329C10.3871 23.1323 10.4832 23.3039 10.6212 23.4452C10.7477 23.5988 10.9037 23.713 11.0902 23.782H11.1132L10.7058 29.5772ZM10.3329 22.3511H9.28635C9.26423 22.1996 9.20652 22.0554 9.11796 21.9305C9.01599 21.8238 8.90763 21.7234 8.79349 21.6299L10.7058 15.7139L11.114 21.5091C10.9128 21.5913 10.7477 21.7046 10.6212 21.8459C10.488 21.9903 10.3894 22.163 10.3329 22.3511ZM11.2586 29.9863L11.6915 23.8058H11.7506L14.1911 28.4469C14.0621 28.5504 13.9592 28.6826 13.8905 28.833C13.8111 28.9847 13.7736 29.1548 13.782 29.3258V29.4219C13.782 29.4548 13.7902 29.4877 13.8149 29.5295L11.8073 30.3715C11.7334 30.2852 11.6529 30.2048 11.5666 30.1308C11.4763 30.0898 11.3711 30.0339 11.2545 29.9863H11.2586ZM17.3544 35.4208L11.993 31.5626C11.9999 31.4923 12.0159 31.4233 12.0406 31.3572C12.0573 31.278 12.0694 31.198 12.0767 31.1174V31.0089L12.0406 30.8882V30.921L14.0244 30.0438C14.127 30.1826 14.2585 30.2935 14.4211 30.3805C14.5805 30.4701 14.7579 30.512 14.9501 30.512H15.0709C15.1091 30.5096 15.1462 30.4983 15.1793 30.4791L17.3914 35.3847L17.3585 35.4175L17.3552 35.4217L17.3544 35.4208ZM18.5455 35.2163C18.4741 35.2097 18.4046 35.1902 18.3401 35.1588C18.2498 35.1539 18.1758 35.1415 18.1118 35.1341C18.0625 35.1341 18.0214 35.1391 17.9918 35.1415C17.9426 35.1588 17.904 35.1662 17.8834 35.1489H17.9081L15.7083 30.2434C15.774 30.1859 15.8397 30.1169 15.9128 30.0265C15.9539 29.9526 16.0089 29.854 16.0574 29.7505H16.082L21.3367 30.4109C21.3416 30.5317 21.3696 30.6434 21.4213 30.7362C21.4624 30.8414 21.5199 30.9375 21.602 31.0245L21.0722 31.7228L18.5455 35.2163ZM25.747 36.0221H19.2421C19.2248 35.9564 19.201 35.8743 19.1583 35.7814C19.1167 35.705 19.0683 35.6324 19.0137 35.5646L22.0555 31.3564C22.1212 31.4057 22.1877 31.4303 22.2608 31.4303C22.3265 31.4476 22.4103 31.455 22.5015 31.4377C22.5672 31.4459 22.6395 31.4427 22.7299 31.4295C22.8109 31.4241 22.8893 31.3987 22.9582 31.3556H22.9336L25.9753 35.5646C25.9178 35.6517 25.8694 35.7272 25.8307 35.7929C25.7887 35.8632 25.76 35.9406 25.7461 36.0213L25.747 36.0221ZM27.1056 35.1563C27.0563 35.1645 27.0185 35.1613 26.998 35.1481C26.9578 35.1444 26.9176 35.1422 26.8772 35.1415C26.7951 35.1489 26.7236 35.1588 26.6604 35.1662C26.5782 35.199 26.5068 35.2237 26.4435 35.2237L23.3895 31.0401C23.4552 30.9523 23.525 30.857 23.5817 30.751C23.6227 30.6582 23.6474 30.5465 23.6556 30.4265L28.9341 29.7653C28.9752 29.8704 29.0245 29.9608 29.091 30.0298C29.1485 30.1201 29.2117 30.1941 29.2832 30.2582L27.1672 34.9838L27.1056 35.1563ZM27.6592 35.4208H27.6346V35.388L27.6921 35.2434L29.8319 30.4824C29.8369 30.507 29.873 30.5153 29.928 30.5153H30.0365C30.2196 30.5153 30.3979 30.4742 30.5655 30.3945C30.7158 30.3288 30.8489 30.2236 30.9622 30.07V30.0454L33.5234 31.151L27.6592 35.4208ZM31.2062 29.5295C31.1985 29.4934 31.2013 29.4557 31.2144 29.4211C31.2204 29.3895 31.2226 29.3572 31.221 29.325C31.217 29.1593 31.1804 28.996 31.1133 28.8445C31.0297 28.7004 30.9288 28.5672 30.8127 28.4477L33.2893 23.782H33.3304L33.7748 30.6598L31.2062 29.5295ZM33.9358 23.7459C34.119 23.6802 34.2841 23.5775 34.4286 23.4337C34.5461 23.3072 34.6332 23.1413 34.6808 22.9409H35.7027C35.7437 23.1027 35.8054 23.2349 35.8949 23.3368C35.9688 23.4666 36.0814 23.5684 36.2202 23.6374L34.3079 29.578L33.9358 23.7459Z" fill="white"/>
</g>
<defs>
<clipPath id="clip0_1_2966">
<rect width="46" height="46" fill="white"/>
</clipPath>
</defs>
</svg>
