<svg width="46" height="46" viewBox="0 0 46 46" fill="none" xmlns="http://www.w3.org/2000/svg">
<path d="M46 23C46 10.2975 35.7025 0 23 0C10.2975 0 0 10.2975 0 23C0 35.7025 10.2975 46 23 46C35.7025 46 46 35.7025 46 23Z" fill="#F0F0F0"/>
<path fill-rule="evenodd" clip-rule="evenodd" d="M22.8941 7.39285L22.6814 8.10421V28.7385L22.895 28.948L32.6453 23.2859L22.8941 7.39285Z" fill="#343434"/>
<path fill-rule="evenodd" clip-rule="evenodd" d="M22.894 7.39285L13.1428 23.2859L22.894 28.948V18.9323V7.39285Z" fill="#8C8C8C"/>
<path fill-rule="evenodd" clip-rule="evenodd" d="M22.8941 30.7617L22.7742 30.9054V38.2556L22.8941 38.6006L32.6518 25.1012L22.8941 30.7617Z" fill="#3C3C3B"/>
<path fill-rule="evenodd" clip-rule="evenodd" d="M22.894 38.5998V30.7625L13.1428 25.1021L22.894 38.5998Z" fill="#8C8C8C"/>
<path fill-rule="evenodd" clip-rule="evenodd" d="M22.894 28.9471L32.646 23.2859L22.894 18.9323V28.9471Z" fill="#141414"/>
<path fill-rule="evenodd" clip-rule="evenodd" d="M13.1428 23.2859L22.894 28.948V18.9323L13.1428 23.2859Z" fill="#393939"/>
</svg>
