<svg width="275" height="63" viewBox="0 0 275 63" fill="none" xmlns="http://www.w3.org/2000/svg">
<mask id="mask0_1_2236" style="mask-type:luminance" maskUnits="userSpaceOnUse" x="-2" y="0" width="279" height="64">
<path d="M276.5 0H-1.5V64H276.5V0Z" fill="white"/>
</mask>
<g mask="url(#mask0_1_2236)">
<path d="M1 29.64C7.825 29.64 13.675 28.46 20.5 28.46C27.325 28.46 33.175 34.95 40 34.95C46.825 34.95 52.675 28.46 59.5 28.46C66.325 28.46 72.175 47.34 79 47.34C85.825 47.34 91.675 29.64 98.5 29.64C105.325 29.64 111.175 33.77 118 33.77C124.825 33.77 130.675 43.21 137.5 43.21C144.325 43.21 150.175 34.95 157 34.95C163.825 34.95 169.675 28.46 176.5 28.46C183.325 28.46 189.175 39.08 196 39.08C202.825 39.08 208.675 33.77 215.5 33.77C222.325 33.77 228.175 39.08 235 39.08C241.825 39.08 247.675 23.15 254.5 23.15C261.325 23.15 267.175 39.08 274 39.08C274 39.08 274 39.08 274 61.5H1V29.64Z" fill="url(#paint0_linear_1_2236)"/>
</g>
<mask id="mask1_1_2236" style="mask-type:luminance" maskUnits="userSpaceOnUse" x="-2" y="0" width="279" height="64">
<path d="M276.5 0H-1.5V64H276.5V0Z" fill="white"/>
</mask>
<g mask="url(#mask1_1_2236)">
<path d="M1 29.64C7.825 29.64 13.675 28.46 20.5 28.46C27.325 28.46 33.175 34.95 40 34.95C46.825 34.95 52.675 28.46 59.5 28.46C66.325 28.46 72.175 47.34 79 47.34C85.825 47.34 91.675 29.64 98.5 29.64C105.325 29.64 111.175 33.77 118 33.77C124.825 33.77 130.675 43.21 137.5 43.21C144.325 43.21 150.175 34.95 157 34.95C163.825 34.95 169.675 28.46 176.5 28.46C183.325 28.46 189.175 39.08 196 39.08C202.825 39.08 208.675 33.77 215.5 33.77C222.325 33.77 228.175 39.08 235 39.08C241.825 39.08 247.675 23.15 254.5 23.15C261.325 23.15 267.175 39.08 274 39.08" stroke="#141414"/>
</g>
<defs>
<linearGradient id="paint0_linear_1_2236" x1="1" y1="23.15" x2="1" y2="61.5" gradientUnits="userSpaceOnUse">
<stop stop-color="#141414" stop-opacity="0.4225"/>
<stop offset="1" stop-color="#8A8A8A" stop-opacity="0.25"/>
</linearGradient>
</defs>
</svg>
