<svg width="46" height="46" viewBox="0 0 46 46" fill="none" xmlns="http://www.w3.org/2000/svg">
<g clip-path="url(#clip0_1_2976)">
<g clip-path="url(#clip1_1_2976)">
<path d="M46 23C46 10.2975 35.7025 0 23 0C10.2975 0 0 10.2975 0 23C0 35.7025 10.2975 46 23 46C35.7025 46 46 35.7025 46 23Z" fill="#697B8E"/>
<path fill-rule="evenodd" clip-rule="evenodd" d="M19.1015 10.0625L15.5004 23.1594L12.4939 24.2223L11.5 27.844L14.5048 26.7819L12.3822 34.5H33.1676L34.5 29.6963H21.5247L23.1643 23.7196L27.0472 22.3461L28.0132 18.8337L27.9803 18.7466L24.1582 20.0979L26.9116 10.0625H19.1015Z" fill="white"/>
</g>
</g>
<defs>
<clipPath id="clip0_1_2976">
<rect width="46" height="46" fill="white"/>
</clipPath>
<clipPath id="clip1_1_2976">
<rect width="46" height="46" fill="white"/>
</clipPath>
</defs>
</svg>
