<svg width="36" height="36" viewBox="0 0 36 36" fill="none" xmlns="http://www.w3.org/2000/svg">
<path d="M22.5 7.5V10.5" stroke="#212529" stroke-width="0.6" stroke-linecap="round" stroke-linejoin="round"/>
<path d="M22.5 16.5V19.5" stroke="#212529" stroke-width="0.6" stroke-linecap="round" stroke-linejoin="round"/>
<path d="M22.5 25.5V28.5" stroke="#212529" stroke-width="0.6" stroke-linecap="round" stroke-linejoin="round"/>
<path d="M7.5 7.5H28.5C29.2957 7.5 30.0587 7.81608 30.6213 8.3787C31.1839 8.94126 31.5 9.70434 31.5 10.5V15C30.7043 15 29.9413 15.3161 29.3787 15.8787C28.8161 16.4413 28.5 17.2043 28.5 18C28.5 18.7957 28.8161 19.5587 29.3787 20.1213C29.9413 20.6839 30.7043 21 31.5 21V25.5C31.5 26.2957 31.1839 27.0587 30.6213 27.6213C30.0587 28.1839 29.2957 28.5 28.5 28.5H7.5C6.70434 28.5 5.94129 28.1839 5.37868 27.6213C4.81607 27.0587 4.5 26.2957 4.5 25.5V21C5.29565 21 6.05874 20.6839 6.6213 20.1213C7.18392 19.5587 7.5 18.7957 7.5 18C7.5 17.2043 7.18392 16.4413 6.6213 15.8787C6.05874 15.3161 5.29565 15 4.5 15V10.5C4.5 9.70434 4.81607 8.94126 5.37868 8.3787C5.94129 7.81608 6.70434 7.5 7.5 7.5Z" stroke="#212529" stroke-width="0.6" stroke-linecap="round" stroke-linejoin="round" stroke-dasharray="97.7 97.7"/>
</svg>
