<svg width="60" height="60" viewBox="0 0 60 60" fill="none" xmlns="http://www.w3.org/2000/svg">
<path d="M25 32.5C25 33.8261 25.5268 35.0979 26.4645 36.0355C27.4021 36.9732 28.6739 37.5 30 37.5C31.3261 37.5 32.5979 36.9732 33.5355 36.0355C34.4732 35.0979 35 33.8261 35 32.5C35 31.1739 34.4732 29.9021 33.5355 28.9645C32.5979 28.0268 31.3261 27.5 30 27.5C28.6739 27.5 27.4021 28.0268 26.4645 28.9645C25.5268 29.9021 25 31.1739 25 32.5Z" stroke="#212529" stroke-linecap="round" stroke-linejoin="round"/>
<path d="M20 52.5V50C20 48.6739 20.5268 47.4021 21.4645 46.4645C22.4021 45.5268 23.6739 45 25 45H35C36.3261 45 37.5979 45.5268 38.5355 46.4645C39.4732 47.4021 40 48.6739 40 50V52.5" stroke="#212529" stroke-linecap="round" stroke-linejoin="round"/>
<path d="M37.5 12.5C37.5 13.8261 38.0268 15.0979 38.9645 16.0355C39.9021 16.9732 41.1739 17.5 42.5 17.5C43.8261 17.5 45.0979 16.9732 46.0355 16.0355C46.9732 15.0979 47.5 13.8261 47.5 12.5C47.5 11.1739 46.9732 9.90215 46.0355 8.96447C45.0979 8.02678 43.8261 7.5 42.5 7.5C41.1739 7.5 39.9021 8.02678 38.9645 8.96447C38.0268 9.90215 37.5 11.1739 37.5 12.5Z" stroke="#212529" stroke-linecap="round" stroke-linejoin="round" stroke-dasharray="31.42 31.42"/>
<path d="M42.5 25H47.5C48.8261 25 50.0979 25.5268 51.0355 26.4645C51.9732 27.4021 52.5 28.6739 52.5 30V32.5" stroke="#212529" stroke-linecap="round" stroke-linejoin="round"/>
<path d="M12.5 12.5C12.5 13.8261 13.0268 15.0979 13.9645 16.0355C14.9021 16.9732 16.1739 17.5 17.5 17.5C18.8261 17.5 20.0979 16.9732 21.0355 16.0355C21.9732 15.0979 22.5 13.8261 22.5 12.5C22.5 11.1739 21.9732 9.90215 21.0355 8.96447C20.0979 8.02678 18.8261 7.5 17.5 7.5C16.1739 7.5 14.9021 8.02678 13.9645 8.96447C13.0268 9.90215 12.5 11.1739 12.5 12.5Z" stroke="#212529" stroke-linecap="round" stroke-linejoin="round"/>
<path d="M7.5 32.5V30C7.5 28.6739 8.02678 27.4021 8.96447 26.4645C9.90215 25.5268 11.1739 25 12.5 25H17.5" stroke="#212529" stroke-linecap="round" stroke-linejoin="round" stroke-dasharray="15.35 15.35"/>
</svg>
