<svg width="60" height="60" viewBox="0 0 60 60" fill="none" xmlns="http://www.w3.org/2000/svg">
<path d="M4.5 30H7.38889M30.5 4V6.88889M53.6111 30H56.5M12.0111 11.5111L14.0333 13.5333M48.9889 11.5111L46.9667 13.5333" stroke="#212529" stroke-linecap="round" stroke-linejoin="round" stroke-dasharray="14.39 14.39"/>
<path d="M21.3 41.7143C18.8654 39.9153 17.067 37.4072 16.1596 34.5453C15.2521 31.6833 15.2817 28.6126 16.2441 25.7682C17.2065 22.9237 19.0529 20.4497 21.5217 18.6965C23.9906 16.9434 26.9567 16 30 16C33.0433 16 36.0094 16.9434 38.4783 18.6965C40.9472 20.4497 42.7935 22.9237 43.7559 25.7682C44.7183 28.6126 44.7479 31.6833 43.8404 34.5453C42.933 37.4072 41.1346 39.9153 38.7 41.7143C37.5677 42.8185 36.7152 44.1698 36.2114 45.6589C35.7076 47.148 35.5667 48.733 35.8 50.2857C35.8 51.8012 35.1889 53.2547 34.1012 54.3263C33.0135 55.398 31.5383 56 30 56C28.4617 56 26.9865 55.398 25.8988 54.3263C24.8111 53.2547 24.2 51.8012 24.2 50.2857C24.4333 48.733 24.2924 47.148 23.7886 45.6589C23.2848 44.1698 22.4323 42.8185 21.3 41.7143Z" stroke="#212529" stroke-linecap="round" stroke-linejoin="round"/>
<path d="M23 44H37" stroke="#212529" stroke-linecap="round" stroke-linejoin="round"/>
</svg>
