<svg width="60" height="60" viewBox="0 0 60 60" fill="none" xmlns="http://www.w3.org/2000/svg">
<path d="M25 35C25 36.3261 25.5268 37.5979 26.4645 38.5355C27.4021 39.4732 28.6739 40 30 40C31.3261 40 32.5979 39.4732 33.5355 38.5355C34.4732 37.5979 35 36.3261 35 35C35 33.6739 34.4732 32.4021 33.5355 31.4645C32.5979 30.5268 31.3261 30 30 30C28.6739 30 27.4021 30.5268 26.4645 31.4645C25.5268 32.4021 25 33.6739 25 35Z" stroke="#212529" stroke-linecap="round" stroke-linejoin="round"/>
<path d="M12.5026 20H47.5001C48.221 19.9999 48.9334 20.1557 49.5884 20.4568C50.2435 20.7578 50.8257 21.1969 51.2952 21.744C51.7646 22.2911 52.1102 22.9333 52.3083 23.6265C52.5063 24.3196 52.5521 25.0475 52.4425 25.76L49.3051 43.64C49.0327 45.4111 48.1352 47.0262 46.775 48.1928C45.4149 49.3594 43.682 50.0005 41.8901 50H18.1101C16.3185 49.9999 14.5863 49.3586 13.2266 48.192C11.867 47.0254 10.9699 45.4107 10.6976 43.64L7.56005 25.76C7.45047 25.0475 7.49627 24.3196 7.69431 23.6265C7.89236 22.9333 8.23795 22.2911 8.70741 21.744C9.17688 21.1969 9.7591 20.7578 10.4142 20.4568C11.0692 20.1557 11.7816 19.9999 12.5026 20Z" stroke="#212529" stroke-linecap="round" stroke-linejoin="round"/>
<path d="M42.5 25L37.5 10" stroke="#212529" stroke-linecap="round" stroke-linejoin="round"/>
<path d="M17.5 25L22.5 10" stroke="#212529" stroke-linecap="round" stroke-linejoin="round"/>
</svg>
