<svg width="46" height="46" viewBox="0 0 46 46" fill="none" xmlns="http://www.w3.org/2000/svg">
<g clip-path="url(#clip0_1_2923)">
<path d="M23 46C35.7025 46 46 35.7025 46 23C46 10.2975 35.7025 0 23 0C10.2975 0 0 10.2975 0 23C0 35.7025 10.2975 46 23 46Z" fill="#6FB92C"/>
<path fill-rule="evenodd" clip-rule="evenodd" d="M9.87842 12.751C9.92606 12.7494 9.96467 12.7757 10.0057 12.7954L11.55 13.5486C11.6568 13.6012 11.7587 13.6661 11.8646 13.7203C12.1948 13.8871 12.5275 14.0489 12.8618 14.2083C13.1592 14.3495 13.4533 14.499 13.749 14.6411C14.402 14.9533 15.0583 15.2597 15.7081 15.5784C17.1801 16.2996 18.6546 17.0167 20.1274 17.7355L20.1389 17.7404C20.2424 17.77 20.2703 17.8357 20.2703 17.9474C20.2662 19.6305 20.2678 21.3128 20.267 22.9959L20.2646 38.4223V38.5505C20.2629 38.5998 20.2383 38.608 20.1988 38.5907C20.1274 38.5579 20.0567 38.5234 19.9853 38.4889C18.4944 37.7594 17.0035 37.03 15.511 36.3022C13.6841 35.4093 11.8556 34.5181 10.0287 33.626C9.9811 33.603 9.93592 33.5685 9.87842 33.5849V12.7519V12.751ZM25.6096 6.66754C25.6351 6.70368 25.677 6.71436 25.7139 6.73243L35.6754 11.6618C35.7148 11.6815 35.7583 11.6955 35.7945 11.7325C35.7608 11.7637 35.7255 11.7711 35.6918 11.7834L26.3785 15.2293L22.1982 16.7752C21.7234 16.9502 21.2486 17.1251 20.7738 17.3034C20.7442 17.3166 20.7119 17.3228 20.6794 17.3217C20.647 17.3205 20.6152 17.312 20.5866 17.2968C19.0628 16.5403 17.5391 15.7854 16.0145 15.0297C15.9923 15.019 15.971 15.005 15.9488 14.9935C15.9611 14.9196 15.9192 14.8703 15.8691 14.8317C15.7065 14.706 15.5997 14.5261 15.4625 14.3758C15.3335 14.2345 15.2193 14.0793 15.097 13.9314C14.9795 13.7893 14.8604 13.6497 14.7437 13.5084L14.361 13.0443C14.241 12.8997 14.1186 12.7568 13.9995 12.6122C13.8352 12.4126 13.6726 12.2097 13.5083 12.0109C13.3884 11.8664 13.2619 11.7267 13.1452 11.5797C13.1042 11.5263 13.059 11.477 13.0187 11.4236C12.9875 11.3834 12.9982 11.3604 13.0532 11.3612C13.1321 11.3612 13.1231 11.3094 13.119 11.2577L14.3404 10.8051L16.0999 10.1586L25.4428 6.7275C25.4839 6.7119 25.5332 6.71107 25.5595 6.66672H25.6088L25.6096 6.66754ZM36.0853 12.2155V33.2498C36.0302 33.2621 35.9908 33.2325 35.9497 33.2161L25.4248 28.9816C25.3065 28.934 25.3147 28.9545 25.3147 28.819L25.3139 16.3193C25.3139 16.2002 25.3139 16.1994 25.4371 16.1534C26.6085 15.718 27.7806 15.2843 28.9528 14.8498L35.9506 12.2557C35.9925 12.2393 36.0327 12.2179 36.0853 12.2155Z" fill="white"/>
<path fill-rule="evenodd" clip-rule="evenodd" d="M13.119 11.2577C13.1231 11.3094 13.1321 11.3612 13.0532 11.3612C12.9982 11.3612 12.9875 11.3834 13.0187 11.4244C13.059 11.477 13.1042 11.5263 13.1452 11.5797C13.2619 11.7275 13.3884 11.8664 13.5083 12.0109C13.6726 12.2105 13.8344 12.4126 13.9987 12.6122C14.1186 12.7576 14.241 12.8997 14.361 13.0443L14.7429 13.5084C14.8604 13.6497 14.9795 13.7893 15.0961 13.9314C15.2193 14.0793 15.3343 14.2345 15.4625 14.3758C15.5997 14.5262 15.7065 14.706 15.8691 14.8317C15.9192 14.8703 15.9611 14.9188 15.9496 14.9935C15.8075 14.9254 15.6646 14.8597 15.5233 14.7898L10.5618 12.3321C10.5183 12.3099 10.4698 12.2952 10.4304 12.2557C10.4493 12.2179 10.4879 12.2163 10.5208 12.2048L13.036 11.2807C13.0623 11.2708 13.091 11.2651 13.119 11.2577Z" fill="white"/>
</g>
<defs>
<clipPath id="clip0_1_2923">
<rect width="46" height="46" fill="white"/>
</clipPath>
</defs>
</svg>
