<svg width="275" height="63" viewBox="0 0 275 63" fill="none" xmlns="http://www.w3.org/2000/svg">
<mask id="mask0_1_2181" style="mask-type:luminance" maskUnits="userSpaceOnUse" x="-2" y="0" width="279" height="64">
<path d="M276.5 0H-1.5V64H276.5V0Z" fill="white"/>
</mask>
<g mask="url(#mask0_1_2181)">
<path d="M1 39.08C7.825 39.08 13.675 29.64 20.5 29.64C27.325 29.64 33.175 43.21 40 43.21C46.825 43.21 52.675 28.46 59.5 28.46C66.325 28.46 72.175 47.34 79 47.34C85.825 47.34 91.675 28.46 98.5 28.46C105.325 28.46 111.175 33.77 118 33.77C124.825 33.77 130.675 29.64 137.5 29.64C144.325 29.64 150.175 39.08 157 39.08C163.825 39.08 169.675 34.95 176.5 34.95C183.325 34.95 189.175 23.15 196 23.15C202.825 23.15 208.675 33.77 215.5 33.77C222.325 33.77 228.175 34.95 235 34.95C241.825 34.95 247.675 39.08 254.5 39.08C261.325 39.08 267.175 28.46 274 28.46C274 28.46 274 28.46 274 61.5H1V39.08Z" fill="url(#paint0_linear_1_2181)"/>
</g>
<mask id="mask1_1_2181" style="mask-type:luminance" maskUnits="userSpaceOnUse" x="-2" y="0" width="279" height="64">
<path d="M276.5 0H-1.5V64H276.5V0Z" fill="white"/>
</mask>
<g mask="url(#mask1_1_2181)">
<path d="M1 39.08C7.825 39.08 13.675 29.64 20.5 29.64C27.325 29.64 33.175 43.21 40 43.21C46.825 43.21 52.675 28.46 59.5 28.46C66.325 28.46 72.175 47.34 79 47.34C85.825 47.34 91.675 28.46 98.5 28.46C105.325 28.46 111.175 33.77 118 33.77C124.825 33.77 130.675 29.64 137.5 29.64C144.325 29.64 150.175 39.08 157 39.08C163.825 39.08 169.675 34.95 176.5 34.95C183.325 34.95 189.175 23.15 196 23.15C202.825 23.15 208.675 33.77 215.5 33.77C222.325 33.77 228.175 34.95 235 34.95C241.825 34.95 247.675 39.08 254.5 39.08C261.325 39.08 267.175 28.46 274 28.46" stroke="#6FB92C"/>
</g>
<defs>
<linearGradient id="paint0_linear_1_2181" x1="1" y1="23.15" x2="1" y2="61.5" gradientUnits="userSpaceOnUse">
<stop stop-color="#6FB92C" stop-opacity="0.4225"/>
<stop offset="1" stop-color="#B7DC96" stop-opacity="0.25"/>
</linearGradient>
</defs>
</svg>
