<svg width="46" height="46" viewBox="0 0 46 46" fill="none" xmlns="http://www.w3.org/2000/svg">
<g clip-path="url(#clip0_1_2912)">
<path d="M46 23C46 10.2975 35.7025 0 23 0C10.2975 0 0 10.2975 0 23C0 35.7025 10.2975 46 23 46C35.7025 46 46 35.7025 46 23Z" fill="url(#paint0_linear_1_2912)"/>
<path fill-rule="evenodd" clip-rule="evenodd" d="M25.2456 9.04311C23.2627 10.1463 22.0421 12.1851 22.0421 14.3914C22.0421 15.5883 22.4832 16.6898 23.0467 17.7108C23.5206 18.57 23.7605 20.1644 22.1349 21.0688C20.9258 21.7416 19.4176 21.3153 18.6635 20.1529C18.0278 19.1705 17.2589 18.2505 16.1828 17.6517C13.1189 15.9464 9.20068 16.9584 7.4305 19.9122C6.86897 20.8432 6.57191 21.9096 6.57129 22.9967C6.57457 25.1349 7.72293 27.2065 9.77568 28.3491C10.7562 28.8919 11.8585 29.1766 12.9793 29.1766C14.1 29.1766 15.2023 28.8919 16.1828 28.3491C17.2589 27.7503 18.0269 26.8311 18.6635 25.8495C19.186 25.0445 20.4904 24.0169 22.1349 24.9328C23.3424 25.6048 23.7153 27.0776 23.0467 28.2908C22.4832 29.3127 22.0421 30.4134 22.0421 31.6094C22.0421 35.0208 24.9105 37.7857 28.4492 37.7857C31.9871 37.7857 34.8564 35.0208 34.8564 31.6094C34.8564 29.403 33.6349 27.3643 31.6528 26.2619C30.5685 25.6573 29.3462 25.4824 28.1371 25.4421C27.1218 25.4076 25.6071 24.7809 25.6071 23.0008C25.6071 21.6742 26.7226 20.6072 28.1371 20.5595C29.347 20.5185 30.5685 20.3435 31.6528 19.7397C33.7055 18.598 34.8539 16.5255 34.8564 14.3939C34.8571 13.3049 34.5603 12.2363 33.998 11.3037C32.8151 9.32896 30.6712 8.22168 28.4648 8.21429C27.3384 8.21143 26.2307 8.49674 25.2456 9.04311Z" fill="white"/>
</g>
<defs>
<linearGradient id="paint0_linear_1_2912" x1="1574.07" y1="422.004" x2="4015.39" y2="4191.98" gradientUnits="userSpaceOnUse">
<stop stop-color="#00AAE4"/>
<stop offset="1" stop-color="#006097"/>
</linearGradient>
<clipPath id="clip0_1_2912">
<rect width="46" height="46" fill="white"/>
</clipPath>
</defs>
</svg>
