<svg width="275" height="63" viewBox="0 0 275 63" fill="none" xmlns="http://www.w3.org/2000/svg">
<mask id="mask0_1_2130" style="mask-type:luminance" maskUnits="userSpaceOnUse" x="-2" y="0" width="279" height="64">
<path d="M276.5 0H-1.5V64H276.5V0Z" fill="white"/>
</mask>
<g mask="url(#mask0_1_2130)">
<path d="M1 34.95C7.825 34.95 13.675 33.77 20.5 33.77C27.325 33.77 33.175 39.08 40 39.08C46.825 39.08 52.675 29.64 59.5 29.64C66.325 29.64 72.175 39.08 79 39.08C85.825 39.08 91.675 28.46 98.5 28.46C105.325 28.46 111.175 23.15 118 23.15C124.825 23.15 130.675 47.34 137.5 47.34C144.325 47.34 150.175 28.46 157 28.46C163.825 28.46 169.675 34.95 176.5 34.95C183.325 34.95 189.175 43.21 196 43.21C202.825 43.21 208.675 39.08 215.5 39.08C222.325 39.08 228.175 28.46 235 28.46C241.825 28.46 247.675 29.64 254.5 29.64C261.325 29.64 267.175 33.77 274 33.77C274 33.77 274 33.77 274 61.5H1V34.95Z" fill="url(#paint0_linear_1_2130)"/>
</g>
<mask id="mask1_1_2130" style="mask-type:luminance" maskUnits="userSpaceOnUse" x="-2" y="0" width="279" height="64">
<path d="M276.5 0H-1.5V64H276.5V0Z" fill="white"/>
</mask>
<g mask="url(#mask1_1_2130)">
<path d="M1 34.95C7.825 34.95 13.675 33.77 20.5 33.77C27.325 33.77 33.175 39.08 40 39.08C46.825 39.08 52.675 29.64 59.5 29.64C66.325 29.64 72.175 39.08 79 39.08C85.825 39.08 91.675 28.46 98.5 28.46C105.325 28.46 111.175 23.15 118 23.15C124.825 23.15 130.675 47.34 137.5 47.34C144.325 47.34 150.175 28.46 157 28.46C163.825 28.46 169.675 34.95 176.5 34.95C183.325 34.95 189.175 43.21 196 43.21C202.825 43.21 208.675 39.08 215.5 39.08C222.325 39.08 228.175 28.46 235 28.46C241.825 28.46 247.675 29.64 254.5 29.64C261.325 29.64 267.175 33.77 274 33.77" stroke="#0077AF"/>
</g>
<defs>
<linearGradient id="paint0_linear_1_2130" x1="1" y1="23.15" x2="1" y2="61.5" gradientUnits="userSpaceOnUse">
<stop stop-color="#0077AF" stop-opacity="0.4225"/>
<stop offset="1" stop-color="#80BBD7" stop-opacity="0.25"/>
</linearGradient>
</defs>
</svg>
