<svg width="34" height="27" viewBox="0 0 34 27" fill="none" xmlns="http://www.w3.org/2000/svg">
<rect width="33.59" height="26.38" rx="6" fill="#E9ECEF"/>
<path d="M13.05 10.94C12.7533 10.94 12.4633 10.852 12.2166 10.6872C11.97 10.5224 11.7777 10.2881 11.6642 10.014C11.5506 9.73994 11.5209 9.43834 11.5788 9.14737C11.6367 8.8564 11.7795 8.58912 11.9893 8.37934C12.1991 8.16956 12.4664 8.0267 12.7574 7.96883C13.0483 7.91095 13.3499 7.94065 13.624 8.05418C13.8981 8.16772 14.1324 8.35997 14.2972 8.60665C14.462 8.85332 14.55 9.14333 14.55 9.44V16.94C14.55 17.2367 14.462 17.5267 14.2972 17.7734C14.1324 18.02 13.8981 18.2123 13.624 18.3258C13.3499 18.4394 13.0483 18.4691 12.7574 18.4112C12.4664 18.3533 12.1991 18.2104 11.9893 18.0007C11.7795 17.7909 11.6367 17.5236 11.5788 17.2326C11.5209 16.9417 11.5506 16.6401 11.6642 16.366C11.7777 16.0919 11.97 15.8576 12.2166 15.6928C12.4633 15.528 12.7533 15.44 13.05 15.44H20.55C20.8467 15.44 21.1367 15.528 21.3833 15.6928C21.63 15.8576 21.8223 16.0919 21.9358 16.366C22.0493 16.6401 22.079 16.9417 22.0212 17.2326C21.9633 17.5236 21.8204 17.7909 21.6106 18.0007C21.4009 18.2104 21.1336 18.3533 20.8426 18.4112C20.5517 18.4691 20.2501 18.4394 19.976 18.3258C19.7019 18.2123 19.4676 18.02 19.3028 17.7734C19.138 17.5267 19.05 17.2367 19.05 16.94V9.44C19.05 9.14333 19.138 8.85332 19.3028 8.60665C19.4676 8.35997 19.7019 8.16772 19.976 8.05418C20.2501 7.94065 20.5517 7.91095 20.8426 7.96883C21.1336 8.0267 21.4009 8.16956 21.6106 8.37934C21.8204 8.58912 21.9633 8.8564 22.0212 9.14737C22.079 9.43834 22.0493 9.73994 21.9358 10.014C21.8223 10.2881 21.63 10.5224 21.3833 10.6872C21.1367 10.852 20.8467 10.94 20.55 10.94H13.05Z" stroke="#212529" stroke-width="0.75" stroke-linecap="round" stroke-linejoin="round"/>
</svg>
