<svg width="28" height="28" viewBox="0 0 28 28" fill="none" xmlns="http://www.w3.org/2000/svg">
<path d="M14 24.5C11.2152 24.5 8.54451 23.3938 6.57538 21.4246C4.60625 19.4555 3.5 16.7848 3.5 14C3.5 11.2152 4.60625 8.54451 6.57538 6.57538C8.54451 4.60625 11.2152 3.5 14 3.5C19.7983 3.5 24.5 7.679 24.5 12.8333C24.5 14.07 23.947 15.2577 22.9623 16.1327C21.9777 17.0077 20.6418 17.5 19.25 17.5H16.3333C15.8128 17.4916 15.3045 17.6575 14.8891 17.9713C14.4738 18.2851 14.1753 18.7288 14.0412 19.2318C13.9071 19.7348 13.945 20.2682 14.1489 20.7472C14.3529 21.2261 14.7111 21.6231 15.1667 21.875C15.3996 22.0899 15.5594 22.3725 15.6235 22.6829C15.6876 22.9933 15.6528 23.316 15.5241 23.6056C15.3954 23.8953 15.1791 24.1373 14.9058 24.2977C14.6324 24.4581 14.3156 24.5289 14 24.5Z" stroke="#212529" stroke-width="1.16667" stroke-linecap="round" stroke-linejoin="round"/>
<path d="M8.75 12.25C8.75 12.5594 8.87292 12.8562 9.09171 13.075C9.3105 13.2937 9.60725 13.4167 9.91667 13.4167C10.2261 13.4167 10.5228 13.2937 10.7416 13.075C10.9604 12.8562 11.0833 12.5594 11.0833 12.25C11.0833 11.9406 10.9604 11.6438 10.7416 11.425C10.5228 11.2062 10.2261 11.0833 9.91667 11.0833C9.60725 11.0833 9.3105 11.2062 9.09171 11.425C8.87292 11.6438 8.75 11.9406 8.75 12.25Z" stroke="#212529" stroke-width="1.16667" stroke-linecap="round" stroke-linejoin="round"/>
<path d="M13.4167 8.74999C13.4167 9.05941 13.5396 9.35616 13.7584 9.57495C13.9772 9.79374 14.2739 9.91666 14.5834 9.91666C14.8928 9.91666 15.1895 9.79374 15.4083 9.57495C15.6271 9.35616 15.75 9.05941 15.75 8.74999C15.75 8.44058 15.6271 8.14383 15.4083 7.92504C15.1895 7.70624 14.8928 7.58333 14.5834 7.58333C14.2739 7.58333 13.9772 7.70624 13.7584 7.92504C13.5396 8.14383 13.4167 8.44058 13.4167 8.74999Z" stroke="#212529" stroke-width="1.16667" stroke-linecap="round" stroke-linejoin="round"/>
<path d="M18.0833 12.25C18.0833 12.5594 18.2062 12.8562 18.425 13.075C18.6438 13.2937 18.9406 13.4167 19.25 13.4167C19.5594 13.4167 19.8561 13.2937 20.0749 13.075C20.2937 12.8562 20.4166 12.5594 20.4166 12.25C20.4166 11.9406 20.2937 11.6438 20.0749 11.425C19.8561 11.2062 19.5594 11.0833 19.25 11.0833C18.9406 11.0833 18.6438 11.2062 18.425 11.425C18.2062 11.6438 18.0833 11.9406 18.0833 12.25Z" stroke="#212529" stroke-width="1.16667" stroke-linecap="round" stroke-linejoin="round"/>
</svg>
