<svg width="220" height="44" viewBox="0 0 220 44" fill="none" xmlns="http://www.w3.org/2000/svg">
<g clip-path="url(#clip0_1_239)">
<g clip-path="url(#clip1_1_239)">
<g clip-path="url(#clip2_1_239)">
<path d="M159.033 21.3663H152.935C152.716 21.3663 152.527 21.2865 152.368 21.1267C152.208 20.967 152.128 20.7773 152.128 20.5576V1.20861C152.128 0.98896 152.208 0.799264 152.368 0.639519C152.527 0.479775 152.716 0.399902 152.935 0.399902H159.033C159.252 0.399902 159.441 0.479775 159.601 0.639519C159.76 0.799264 159.84 0.98896 159.84 1.20861V20.5576C159.84 20.7773 159.76 20.967 159.601 21.1267C159.441 21.2865 159.252 21.3663 159.033 21.3663Z" fill="url(#paint0_linear_1_239)"/>
<path d="M137.597 0.399902H144.083C144.8 0.399902 145.249 0.729375 145.428 1.38832L152.094 20.4977C152.114 20.5576 152.123 20.6575 152.123 20.7972C152.123 20.917 152.054 21.0468 151.914 21.1866C151.795 21.3064 151.645 21.3663 151.466 21.3663H145.936C145.339 21.3663 144.95 21.1167 144.771 20.6175L144.053 18.6407H137.627L136.91 20.6175C136.73 21.1167 136.342 21.3663 135.744 21.3663H130.214C130.035 21.3663 129.875 21.3064 129.736 21.1866C129.616 21.0468 129.557 20.917 129.557 20.7972C129.557 20.6575 129.567 20.5576 129.587 20.4977L136.252 1.38832C136.431 0.729375 136.88 0.399902 137.597 0.399902Z" fill="url(#paint1_linear_1_239)"/>
<path d="M124.229 20.3779C124.289 20.4977 124.319 20.6275 124.319 20.7673C124.319 20.9071 124.249 21.0468 124.11 21.1866C123.99 21.3064 123.84 21.3663 123.661 21.3663H117.534C116.916 21.3663 116.488 21.0968 116.248 20.5576L113.678 14.8368H112.452V20.5576C112.452 20.7773 112.373 20.967 112.213 21.1267C112.054 21.2865 111.865 21.3663 111.645 21.3663H105.787C105.568 21.3663 105.379 21.2865 105.219 21.1267C105.06 20.967 104.98 20.7773 104.98 20.5576V1.20861C104.98 0.98896 105.06 0.799264 105.219 0.639519C105.379 0.479775 105.568 0.399902 105.787 0.399902H114.634C117.504 0.399902 119.746 1.04886 121.36 2.34678C122.974 3.62474 123.781 5.47178 123.781 7.88791C123.781 10.2841 122.705 12.1711 120.553 13.5488L124.229 20.3779ZM112.452 5.97098V9.1459H114.634C115.073 9.1459 115.412 9.00612 115.651 8.72657C115.89 8.42705 116.009 8.05764 116.009 7.61834C116.009 7.17905 115.89 6.79965 115.651 6.48017C115.431 6.14071 115.093 5.97098 114.634 5.97098H112.452Z" fill="url(#paint2_linear_1_239)"/>
<path d="M93.7624 15.5257H102.969C103.188 15.5257 103.377 15.6056 103.536 15.7653C103.696 15.925 103.776 16.1147 103.776 16.3344V20.5576C103.776 20.7773 103.696 20.967 103.536 21.1267C103.377 21.2865 103.188 21.3663 102.969 21.3663H87.3959C87.1767 21.3663 86.9874 21.2865 86.828 21.1267C86.6686 20.967 86.5889 20.7773 86.5889 20.5576V1.20861C86.5889 0.98896 86.6686 0.799264 86.828 0.639519C86.9874 0.479775 87.1767 0.399902 87.3959 0.399902H102.729C102.949 0.399902 103.138 0.479775 103.297 0.639519C103.457 0.799264 103.536 0.98896 103.536 1.20861V5.43185C103.536 5.65149 103.457 5.84119 103.297 6.00093C103.138 6.16068 102.949 6.24055 102.729 6.24055H93.7624V8.12753H102.072C102.291 8.12753 102.48 8.2074 102.64 8.36714C102.799 8.52689 102.879 8.71658 102.879 8.93623V12.83C102.879 13.0496 102.799 13.2393 102.64 13.3991C102.48 13.5588 102.291 13.6387 102.072 13.6387H93.7624V15.5257Z" fill="url(#paint3_linear_1_239)"/>
<path d="M67.077 0.399902H75.6853C78.5946 0.399902 80.9858 1.12874 82.8589 2.5864C84.7519 4.0241 85.6984 6.04087 85.6984 8.63671V13.0996C85.6984 15.8152 84.7818 17.8719 82.9486 19.2697C81.1153 20.6674 78.7042 21.3663 75.7152 21.3663H68.1445C67.9253 21.3663 67.736 21.2865 67.5766 21.1267C67.4172 20.967 67.3375 20.7773 67.3375 20.5576L66.27 1.20861C66.27 0.98896 66.3497 0.799264 66.5091 0.639519C66.6686 0.479775 66.8579 0.399902 67.077 0.399902ZM73.7425 6.24055V15.5257H75.6853C76.3628 15.5257 76.9009 15.326 77.2994 14.9266C77.7178 14.5073 77.9271 13.8983 77.9271 13.0996V8.63671C77.9271 7.03927 77.1798 6.24055 75.6853 6.24055H73.7425Z" fill="url(#paint4_linear_1_239)"/>
<path d="M67.1057 0.399902H72.5158C72.735 0.399902 72.9243 0.479775 73.0837 0.639519C73.2431 0.799264 73.3228 0.98896 73.3228 1.20861V20.5576C73.3228 20.7773 73.2431 20.967 73.0837 21.1267C72.9243 21.2865 72.735 21.3663 72.5158 21.3663H67.7932C67.2751 21.3663 66.8666 21.1367 66.5677 20.6774L61.5163 13.0397V20.5576C61.5163 20.7773 61.4366 20.967 61.2772 21.1267C61.1178 21.2865 60.9285 21.3663 60.7093 21.3663H55.2992C55.08 21.3663 54.8907 21.2865 54.7313 21.1267C54.5719 20.967 54.4922 20.7773 54.4922 20.5576V1.20861C54.4922 0.98896 54.5719 0.799264 54.7313 0.639519C54.8907 0.479775 55.08 0.399902 55.2992 0.399902H60.0218C60.5798 0.399902 60.9883 0.629535 61.2473 1.0888L66.2987 9.38551V1.20861C66.2987 0.98896 66.3784 0.799264 66.5378 0.639519C66.6972 0.479775 66.8865 0.399902 67.1057 0.399902Z" fill="url(#paint5_linear_1_239)"/>
<path d="M46.6368 0.399902H52.4952C52.7144 0.399902 52.9037 0.479775 53.0631 0.639519C53.2225 0.799264 53.3022 0.98896 53.3022 1.20861V13.2493C53.3022 16.0448 52.4354 18.1515 50.7018 19.5692C48.9682 20.967 46.6994 21.3664 43.7105 21.3664C40.7414 21.3664 37.4578 21.6945 35.7042 20.2967C33.9706 18.8989 33.9336 16.0648 33.9336 13.2493V1.20861C33.9336 0.98896 34.0133 0.799264 34.1727 0.639519C34.3321 0.479775 34.5214 0.399902 34.7406 0.399902H40.599C40.8182 0.399902 41.0075 0.479775 41.1669 0.639519C41.3264 0.799264 41.4061 0.98896 41.4061 1.20861V13.3392C41.4061 14.8767 42.1433 15.6455 43.6179 15.6455C45.0925 15.6455 45.8298 14.8767 45.8298 13.3392V1.20861C45.8298 0.98896 45.9095 0.799264 46.0689 0.639519C46.2283 0.479775 46.4176 0.399902 46.6368 0.399902Z" fill="url(#paint6_linear_1_239)"/>
<path d="M33.5455 0.399902H39.4039C39.6231 0.399902 39.8124 0.479775 39.9718 0.639519C40.1312 0.799264 40.2109 0.98896 40.2109 1.20861V20.5576C40.2109 20.7773 40.1312 20.967 39.9718 21.1267C39.8124 21.2865 39.6231 21.3663 39.4039 21.3663H33.5455C33.3263 21.3663 33.137 21.2865 32.9776 21.1267C32.8182 20.967 32.7385 20.7773 32.7385 20.5576V14.088H27.8963V20.5576C27.8963 20.7773 27.8166 20.967 27.6572 21.1267C27.4978 21.2865 27.3085 21.3663 27.0893 21.3663H21.2309C21.0117 21.3663 20.8224 21.2964 20.6629 21.1567C20.5035 20.9969 20.4238 20.7972 20.4238 20.5576V1.20861C20.4238 0.98896 20.5035 0.799264 20.6629 0.639519C20.8224 0.479775 21.0117 0.399902 21.2309 0.399902H27.0893C27.3085 0.399902 27.4978 0.479775 27.6572 0.639519C27.8166 0.799264 27.8963 0.98896 27.8963 1.20861V7.49853H32.7385V1.20861C32.7385 0.98896 32.8182 0.799264 32.9776 0.639519C33.137 0.479775 33.3263 0.399902 33.5455 0.399902Z" fill="url(#paint7_linear_1_239)"/>
<path d="M1.64687 0.399902H19.1623C19.3815 0.399902 19.5708 0.479775 19.7302 0.639519C19.8897 0.799264 19.9694 0.98896 19.9694 1.20861V6.03089C19.9694 6.25053 19.8897 6.44023 19.7302 6.59997C19.5708 6.75972 19.3815 6.83959 19.1623 6.83959H14.2006V20.5576C14.2006 20.7773 14.1209 20.967 13.9615 21.1267C13.8021 21.2865 13.6128 21.3663 13.3936 21.3663H7.41562C7.19642 21.3663 7.00712 21.2865 6.84771 21.1267C6.6883 20.967 6.60859 20.7773 6.60859 20.5576V6.83959H1.64687C1.42768 6.83959 1.23838 6.75972 1.07896 6.59997C0.91955 6.44023 0.839844 6.25053 0.839844 6.03089V1.20861C0.839844 0.98896 0.91955 0.799264 1.07896 0.639519C1.23838 0.479775 1.42768 0.399902 1.64687 0.399902Z" fill="url(#paint8_linear_1_239)"/>
<path d="M141 9.02637C141.242 9.38579 141.518 9.71401 141.829 10C141.518 10.2858 141.242 10.6135 141 10.9727C140.758 10.6133 140.481 10.2859 140.17 10C140.481 9.71389 140.758 9.386 141 9.02637Z" fill="#746BEB" stroke="white" stroke-width="2.70391"/>
</g>
</g>
</g>
<path d="M4.326 28.06H5.152L9.282 38H8.246L6.958 34.892H2.492L1.218 38H0.168L4.326 28.06ZM6.734 34.122L4.732 29.208L2.702 34.122H6.734ZM10.7069 38V28.06H14.0809C15.1356 28.06 16.0129 28.284 16.7129 28.732C17.4223 29.1707 17.9543 29.768 18.3089 30.524C18.6636 31.2707 18.8409 32.1013 18.8409 33.016C18.8409 34.024 18.6449 34.9013 18.2529 35.648C17.8703 36.3947 17.3196 36.9733 16.6009 37.384C15.8916 37.7947 15.0516 38 14.0809 38H10.7069ZM17.8609 33.016C17.8609 32.2227 17.7116 31.518 17.4129 30.902C17.1236 30.286 16.6989 29.8053 16.1389 29.46C15.5789 29.1053 14.8929 28.928 14.0809 28.928H11.6869V37.132H14.0809C14.9023 37.132 15.5929 36.95 16.1529 36.586C16.7129 36.222 17.1376 35.732 17.4269 35.116C17.7163 34.4907 17.8609 33.7907 17.8609 33.016ZM29.5208 38V29.908L25.9228 36.194H25.3068L21.6948 29.908V38H20.7148V28.06H21.7228L25.6008 34.864L29.5068 28.06H30.5008V38H29.5208ZM32.9921 38V28.06H33.9721V38H32.9921ZM37.4448 29.866V38H36.4648V28.06H37.2767L43.8008 36.348V28.074H44.7808V38H43.8708L37.4448 29.866ZM50.8476 38V28.06H54.2216C55.2762 28.06 56.1536 28.284 56.8536 28.732C57.5629 29.1707 58.0949 29.768 58.4496 30.524C58.8042 31.2707 58.9816 32.1013 58.9816 33.016C58.9816 34.024 58.7856 34.9013 58.3936 35.648C58.0109 36.3947 57.4602 36.9733 56.7416 37.384C56.0322 37.7947 55.1922 38 54.2216 38H50.8476ZM58.0016 33.016C58.0016 32.2227 57.8522 31.518 57.5536 30.902C57.2642 30.286 56.8396 29.8053 56.2796 29.46C55.7196 29.1053 55.0336 28.928 54.2216 28.928H51.8276V37.132H54.2216C55.0429 37.132 55.7336 36.95 56.2936 36.586C56.8536 36.222 57.2782 35.732 57.5676 35.116C57.8569 34.4907 58.0016 33.7907 58.0016 33.016ZM63.5799 28.06H64.4059L68.5359 38H67.4999L66.2119 34.892H61.7459L60.4719 38H59.4219L63.5799 28.06ZM65.9879 34.122L63.9859 29.208L61.9559 34.122H65.9879ZM75.6341 29.922C75.4941 29.7633 75.3308 29.6233 75.1441 29.502C74.9575 29.3713 74.7475 29.2593 74.5141 29.166C74.2808 29.0727 74.0288 28.998 73.7581 28.942C73.4968 28.886 73.2168 28.858 72.9181 28.858C72.0501 28.858 71.4108 29.026 71.0001 29.362C70.5988 29.6887 70.3981 30.1367 70.3981 30.706C70.3981 31.098 70.4915 31.406 70.6781 31.63C70.8741 31.854 71.1775 32.036 71.5881 32.176C71.9988 32.316 72.5215 32.4607 73.1561 32.61C73.8655 32.7593 74.4768 32.9367 74.9901 33.142C75.5035 33.3473 75.9001 33.6273 76.1801 33.982C76.4601 34.3273 76.6001 34.7987 76.6001 35.396C76.6001 35.8533 76.5115 36.25 76.3341 36.586C76.1568 36.922 75.9095 37.202 75.5921 37.426C75.2748 37.65 74.8968 37.818 74.4581 37.93C74.0195 38.0327 73.5388 38.084 73.0161 38.084C72.5028 38.084 72.0081 38.0327 71.5321 37.93C71.0655 37.818 70.6221 37.6593 70.2021 37.454C69.7821 37.2393 69.3901 36.9687 69.0261 36.642L69.5161 35.844C69.6935 36.0307 69.9035 36.208 70.1461 36.376C70.3981 36.5347 70.6735 36.6793 70.9721 36.81C71.2801 36.9407 71.6068 37.0433 71.9521 37.118C72.3068 37.1833 72.6708 37.216 73.0441 37.216C73.8375 37.216 74.4535 37.0713 74.8921 36.782C75.3401 36.4927 75.5641 36.0633 75.5641 35.494C75.5641 35.0833 75.4521 34.7567 75.2281 34.514C75.0041 34.262 74.6681 34.0567 74.2201 33.898C73.7721 33.7393 73.2215 33.5853 72.5681 33.436C71.8775 33.2773 71.2941 33.1 70.8181 32.904C70.3421 32.708 69.9828 32.4513 69.7401 32.134C69.5068 31.8073 69.3901 31.378 69.3901 30.846C69.3901 30.23 69.5395 29.712 69.8381 29.292C70.1461 28.8627 70.5661 28.5407 71.0981 28.326C71.6301 28.102 72.2415 27.99 72.9321 27.99C73.3708 27.99 73.7768 28.0367 74.1501 28.13C74.5328 28.214 74.8828 28.34 75.2001 28.508C75.5268 28.676 75.8301 28.886 76.1101 29.138L75.6341 29.922ZM86.168 28.06V38H85.202V33.352H79.308V38H78.328V28.06H79.308V32.484H85.202V28.06H86.168ZM96.14 35.438C96.14 35.9327 96.014 36.376 95.762 36.768C95.51 37.1507 95.1693 37.454 94.74 37.678C94.32 37.8927 93.858 38 93.354 38H88.664V28.06H93.452C93.9186 28.06 94.32 28.186 94.656 28.438C95.0013 28.6807 95.2626 28.998 95.44 29.39C95.6266 29.7727 95.72 30.174 95.72 30.594C95.72 31.0887 95.594 31.546 95.342 31.966C95.09 32.386 94.74 32.6987 94.292 32.904C94.8613 33.072 95.3093 33.3847 95.636 33.842C95.972 34.2993 96.14 34.8313 96.14 35.438ZM95.16 35.27C95.16 34.934 95.0853 34.626 94.936 34.346C94.7866 34.0567 94.5813 33.8233 94.32 33.646C94.068 33.4687 93.7786 33.38 93.452 33.38H89.644V37.146H93.354C93.69 37.146 93.9933 37.0573 94.264 36.88C94.5346 36.7027 94.7493 36.474 94.908 36.194C95.076 35.9047 95.16 35.5967 95.16 35.27ZM89.644 28.914V32.582H93.06C93.3866 32.582 93.676 32.498 93.928 32.33C94.18 32.1527 94.3806 31.924 94.53 31.644C94.6793 31.364 94.754 31.0653 94.754 30.748C94.754 30.412 94.684 30.1087 94.544 29.838C94.404 29.558 94.2126 29.334 93.97 29.166C93.7273 28.998 93.452 28.914 93.144 28.914H89.644ZM101.992 38.07C101.292 38.07 100.658 37.93 100.088 37.65C99.5189 37.37 99.0289 36.992 98.6182 36.516C98.2075 36.0307 97.8902 35.4893 97.6662 34.892C97.4422 34.2853 97.3302 33.6647 97.3302 33.03C97.3302 32.3673 97.4469 31.7373 97.6802 31.14C97.9135 30.5333 98.2402 29.9967 98.6602 29.53C99.0895 29.054 99.5889 28.6807 100.158 28.41C100.728 28.13 101.344 27.99 102.006 27.99C102.706 27.99 103.341 28.1347 103.91 28.424C104.48 28.7133 104.965 29.1007 105.366 29.586C105.777 30.0713 106.094 30.6127 106.318 31.21C106.542 31.8073 106.654 32.4187 106.654 33.044C106.654 33.7067 106.538 34.3413 106.304 34.948C106.071 35.5453 105.744 36.082 105.324 36.558C104.904 37.0247 104.41 37.3933 103.84 37.664C103.271 37.9347 102.655 38.07 101.992 38.07ZM98.3102 33.03C98.3102 33.5713 98.3989 34.094 98.5762 34.598C98.7535 35.0927 99.0055 35.536 99.3322 35.928C99.6589 36.3107 100.046 36.6187 100.494 36.852C100.952 37.076 101.451 37.188 101.992 37.188C102.562 37.188 103.07 37.0713 103.518 36.838C103.976 36.5953 104.363 36.278 104.68 35.886C105.007 35.4847 105.254 35.0367 105.422 34.542C105.59 34.0473 105.674 33.5433 105.674 33.03C105.674 32.4887 105.586 31.9707 105.408 31.476C105.231 30.9813 104.974 30.538 104.638 30.146C104.312 29.754 103.924 29.446 103.476 29.222C103.028 28.998 102.534 28.886 101.992 28.886C101.432 28.886 100.924 29.0027 100.466 29.236C100.018 29.4693 99.6309 29.7867 99.3042 30.188C98.9869 30.58 98.7395 31.0233 98.5622 31.518C98.3942 32.0127 98.3102 32.5167 98.3102 33.03ZM111.213 28.06H112.039L116.169 38H115.133L113.845 34.892H109.379L108.105 38H107.055L111.213 28.06ZM113.621 34.122L111.619 29.208L109.589 34.122H113.621ZM117.594 38V28.06H121.794C122.223 28.06 122.615 28.1487 122.97 28.326C123.324 28.5033 123.632 28.746 123.894 29.054C124.164 29.3527 124.37 29.6887 124.51 30.062C124.659 30.426 124.734 30.7993 124.734 31.182C124.734 31.658 124.64 32.106 124.454 32.526C124.276 32.946 124.02 33.3007 123.684 33.59C123.357 33.8793 122.97 34.0707 122.522 34.164L124.958 38H123.852L121.514 34.332H118.574V38H117.594ZM118.574 33.464H121.822C122.214 33.464 122.554 33.3567 122.844 33.142C123.133 32.9273 123.357 32.6473 123.516 32.302C123.674 31.9473 123.754 31.574 123.754 31.182C123.754 30.7807 123.66 30.412 123.474 30.076C123.296 29.7307 123.054 29.4553 122.746 29.25C122.447 29.0353 122.111 28.928 121.738 28.928H118.574V33.464ZM126.74 38V28.06H130.114C131.169 28.06 132.046 28.284 132.746 28.732C133.455 29.1707 133.987 29.768 134.342 30.524C134.697 31.2707 134.874 32.1013 134.874 33.016C134.874 34.024 134.678 34.9013 134.286 35.648C133.903 36.3947 133.353 36.9733 132.634 37.384C131.925 37.7947 131.085 38 130.114 38H126.74ZM133.894 33.016C133.894 32.2227 133.745 31.518 133.446 30.902C133.157 30.286 132.732 29.8053 132.172 29.46C131.612 29.1053 130.926 28.928 130.114 28.928H127.72V37.132H130.114C130.935 37.132 131.626 36.95 132.186 36.586C132.746 36.222 133.171 35.732 133.46 35.116C133.749 34.4907 133.894 33.7907 133.894 33.016Z" fill="#6C757D"/>
<defs>
<linearGradient id="paint0_linear_1_239" x1="-16.0684" y1="2.64631" x2="162.211" y2="21.2895" gradientUnits="userSpaceOnUse">
<stop stop-color="#896ED7"/>
<stop offset="1" stop-color="#5E779B"/>
</linearGradient>
<linearGradient id="paint1_linear_1_239" x1="-16.0689" y1="2.64631" x2="162.211" y2="21.2895" gradientUnits="userSpaceOnUse">
<stop stop-color="#896ED7"/>
<stop offset="1" stop-color="#5E779B"/>
</linearGradient>
<linearGradient id="paint2_linear_1_239" x1="-16.0693" y1="2.64631" x2="162.21" y2="21.2895" gradientUnits="userSpaceOnUse">
<stop stop-color="#896ED7"/>
<stop offset="1" stop-color="#5E779B"/>
</linearGradient>
<linearGradient id="paint3_linear_1_239" x1="-16.0688" y1="2.64631" x2="162.211" y2="21.2895" gradientUnits="userSpaceOnUse">
<stop stop-color="#896ED7"/>
<stop offset="1" stop-color="#5E779B"/>
</linearGradient>
<linearGradient id="paint4_linear_1_239" x1="-16.0696" y1="2.64631" x2="162.21" y2="21.2895" gradientUnits="userSpaceOnUse">
<stop stop-color="#896ED7"/>
<stop offset="1" stop-color="#5E779B"/>
</linearGradient>
<linearGradient id="paint5_linear_1_239" x1="-7.52932" y1="2.64631" x2="170.75" y2="21.2895" gradientUnits="userSpaceOnUse">
<stop stop-color="#896ED7"/>
<stop offset="1" stop-color="#5E779B"/>
</linearGradient>
<linearGradient id="paint6_linear_1_239" x1="-7.52927" y1="2.64631" x2="170.751" y2="21.2896" gradientUnits="userSpaceOnUse">
<stop stop-color="#896ED7"/>
<stop offset="1" stop-color="#5E779B"/>
</linearGradient>
<linearGradient id="paint7_linear_1_239" x1="-0.0565417" y1="2.64631" x2="178.223" y2="21.2895" gradientUnits="userSpaceOnUse">
<stop stop-color="#896ED7"/>
<stop offset="1" stop-color="#5E779B"/>
</linearGradient>
<linearGradient id="paint8_linear_1_239" x1="-0.0568525" y1="2.64631" x2="178.223" y2="21.2895" gradientUnits="userSpaceOnUse">
<stop stop-color="#896ED7"/>
<stop offset="1" stop-color="#5E779B"/>
</linearGradient>
<clipPath id="clip0_1_239">
<rect width="160" height="22" fill="white"/>
</clipPath>
<clipPath id="clip1_1_239">
<rect width="160" height="22" fill="white"/>
</clipPath>
<clipPath id="clip2_1_239">
<rect width="160" height="22" fill="white"/>
</clipPath>
</defs>
</svg>
