<svg width="60" height="60" viewBox="0 0 60 60" fill="none" xmlns="http://www.w3.org/2000/svg">
<path d="M12.5 42.5C12.5 43.8261 13.0268 45.0979 13.9645 46.0355C14.9021 46.9732 16.1739 47.5 17.5 47.5C18.8261 47.5 20.0979 46.9732 21.0355 46.0355C21.9732 45.0979 22.5 43.8261 22.5 42.5C22.5 41.1739 21.9732 39.9021 21.0355 38.9645C20.0979 38.0268 18.8261 37.5 17.5 37.5C16.1739 37.5 14.9021 38.0268 13.9645 38.9645C13.0268 39.9021 12.5 41.1739 12.5 42.5Z" stroke="#212529" stroke-linecap="round" stroke-linejoin="round"/>
<path d="M37.5 42.5C37.5 43.8261 38.0268 45.0979 38.9645 46.0355C39.9021 46.9732 41.1739 47.5 42.5 47.5C43.8261 47.5 45.0979 46.9732 46.0355 46.0355C46.9732 45.0979 47.5 43.8261 47.5 42.5C47.5 41.1739 46.9732 39.9021 46.0355 38.9645C45.0979 38.0268 43.8261 37.5 42.5 37.5C41.1739 37.5 39.9021 38.0268 38.9645 38.9645C38.0268 39.9021 37.5 41.1739 37.5 42.5Z" stroke="#212529" stroke-linecap="round" stroke-linejoin="round" stroke-dasharray="31.42 31.42"/>
<path d="M12.5 42.5H7.5V15C7.5 14.337 7.76339 13.7011 8.23223 13.2322C8.70107 12.7634 9.33696 12.5 10 12.5H32.5V42.5M22.5 42.5H37.5M47.5 42.5H52.5V27.5M52.5 27.5H32.5M52.5 27.5L45 15H32.5" stroke="#212529" stroke-linecap="round" stroke-linejoin="round" stroke-dasharray="171 171"/>
</svg>
